<?xml version="1.0" standalone="no"?>
<!DOCTYPE svg PUBLIC "-//W3C//DTD SVG 1.1//EN" "http://www.w3.org/Graphics/SVG/1.1/DTD/svg11.dtd" >
<svg xmlns="http://www.w3.org/2000/svg">
<metadata></metadata>
<defs>
<font id="frutiger_vrbold" horiz-adv-x="1236" >
<font-face units-per-em="2048" ascent="1638" descent="-410" />
<missing-glyph horiz-adv-x="555" />
<glyph horiz-adv-x="2048" />
<glyph horiz-adv-x="2048" />
<glyph unicode="&#xd;" horiz-adv-x="555" />
<glyph unicode=" "  horiz-adv-x="555" />
<glyph unicode="&#x09;" horiz-adv-x="555" />
<glyph unicode="&#xa0;" horiz-adv-x="555" />
<glyph unicode="!" horiz-adv-x="555" d="M160 1446h323l-51 -1026h-231zM172 0v270h287v-270h-287z" />
<glyph unicode="&#x22;" horiz-adv-x="811" d="M66 1413q0 59 40.5 90t92.5 31q47 0 82.5 -28.5t35.5 -82.5v-30l-96 -531h-55l-96 506q-2 20 -3 27.5t-1 17.5zM492 1413q0 59 41.5 90t93.5 31q47 0 82.5 -28.5t35.5 -82.5q0 -8 -1 -15t-1 -15l-96 -531h-55l-96 506q-2 16 -3 23.5t-1 21.5z" />
<glyph unicode="#" horiz-adv-x="1366" d="M86 438v205h276l27 193h-258v204h285l55 406h213l-57 -406h200l56 406h207l-56 -406h242v-204h-268l-29 -193h252v-205h-277l-63 -438h-207l64 438h-203l-62 -438h-209l62 438h-250zM569 643h205l27 193h-203z" />
<glyph unicode="$" horiz-adv-x="1110" d="M51 1063q0 111 50.5 202t177.5 150q10 4 39.5 15.5t64.5 21.5q33 8 64.5 12t37.5 4v181h131v-176q72 -4 117 -7.5t80 -8.5t65.5 -11t73.5 -19l-24 -239q-18 8 -34.5 15t-35 13.5t-42 11.5t-58.5 11q-18 4 -33.5 6t-34.5 4q-16 2 -30.5 3t-43.5 1v-389q33 -10 58.5 -19 t58.5 -22q78 -29 129 -58.5t86 -64.5q27 -29 44.5 -56.5t29.5 -55.5q10 -23 23.5 -67t13.5 -103q0 -70 -26.5 -154t-92.5 -147q-33 -29 -60.5 -45.5t-39.5 -24.5q-55 -29 -109 -43q-29 -8 -57.5 -11t-57.5 -7v-183h-131v174q-104 0 -200.5 14.5t-200.5 47.5l27 262 q12 -6 45.5 -21.5t80 -31t99.5 -26.5t104 -11h45v407q-31 10 -56.5 18.5t-55.5 20.5q-63 25 -108.5 48.5t-78 49t-55 55.5t-41.5 64q-29 61 -34 115.5t-5 73.5zM334 1077q0 -51 20.5 -81.5t46.5 -49.5q18 -10 35 -17t21 -9q10 -4 17 -6.5t18 -6.5v340q-14 -4 -41 -13 t-52.5 -27.5t-45 -49.5t-19.5 -80zM610 219q4 2 26.5 7t41.5 16q31 14 65.5 53t32.5 104q0 39 -13 67t-35.5 48.5t-53.5 35.5t-64 30v-361z" />
<glyph unicode="%" horiz-adv-x="1792" d="M63 989q-2 66 8.5 149t39.5 148q12 27 30.5 54.5t42.5 50.5q49 45 100.5 58t100.5 13q33 0 64.5 -5t60.5 -17q70 -31 108.5 -91.5t57 -128t22.5 -134t4 -109.5q0 -147 -30.5 -242.5t-108.5 -154.5q-43 -35 -90 -46.5t-92 -11.5q-41 0 -69.5 6.5t-45.5 14.5q-35 14 -82 52 t-80 118q-14 37 -27.5 108.5t-13.5 167.5zM256 1001q0 -92 10 -159.5t27 -102.5q8 -16 28.5 -42.5t61.5 -26.5q29 0 53 18q45 33 58.5 115t13.5 184q0 92 -7 149.5t-24 98.5q-4 16 -10 25.5t-10 15.5q-16 23 -36 32t-40 9q-18 0 -33 -6q-29 -10 -48 -44t-30 -83 q-6 -29 -8 -58.5t-4 -55.5t-2 -44v-25zM541 0l563 1446h156l-564 -1446h-155zM1087 451q0 66 9.5 148.5t40.5 148.5q10 25 28.5 52t42.5 50q49 45 100.5 59.5t100.5 14.5q66 0 125 -25q70 -31 109.5 -90t58 -127t23 -134.5t4.5 -109.5q0 -150 -32 -245t-108 -154 q-45 -35 -92 -45t-90 -10q-41 0 -70.5 6t-46.5 12q-35 14 -82 53t-78 117q-16 37 -28 108.5t-15 170.5zM1280 461q0 -92 11.5 -160t27.5 -102q6 -16 26.5 -43t61.5 -27q29 0 53 18q45 33 59.5 115t14.5 184q0 92 -8 149.5t-25 98.5q-4 16 -9 25.5t-9 15.5q-16 23 -37 32 t-39 9q-20 0 -35 -6q-29 -10 -47 -44t-29 -81q-6 -29 -9 -58.5t-5 -56t-2 -45.5v-24z" />
<glyph unicode="&#x26;" horiz-adv-x="1449" d="M57 422q-2 109 38 179.5t91 111.5q41 35 87 54t87 36l-53 53t-64.5 76t-54 97t-22.5 116q0 53 25.5 114.5t89.5 112.5q47 39 130 67.5t199 28.5q106 0 184 -27.5t127.5 -72.5t74 -102.5t24.5 -116.5q2 -84 -40 -161t-132 -142q-23 -16 -46.5 -30.5t-68.5 -39.5l279 -303 q12 25 22 44.5t21 45.5q27 63 33 114.5t10 115.5h250q-2 -41 -6.5 -77t-10.5 -71t-17 -70.5t-28 -76.5q-6 -16 -20.5 -50t-42.5 -77q-16 -23 -26.5 -38.5t-27.5 -35.5l261 -297h-351l-108 127q-27 -23 -43.5 -36t-30.5 -23q-51 -35 -103.5 -52.5t-97.5 -24.5t-78.5 -8 t-48.5 -1q-51 0 -109.5 8t-117.5 30.5t-114.5 61.5t-98.5 102q-41 59 -56.5 118.5t-15.5 119.5zM342 422q0 -47 15.5 -84t39 -63.5t50 -44t49.5 -25.5q29 -10 56.5 -12.5t35.5 -2.5q72 0 125 24t80 42q23 16 41 33l-328 360q-35 -23 -52.5 -36t-33.5 -27q-29 -25 -53.5 -63 t-24.5 -101zM436 1133q0 -29 10.5 -52.5t24.5 -44t28.5 -35l22.5 -22.5q16 -14 26.5 -24.5t26.5 -24.5q51 29 78 45t49 39q8 6 23.5 23.5t28.5 39.5q10 23 12 38t2 24q0 6 -3 25.5t-20 41.5q-29 35 -69.5 47.5t-69.5 14.5q-33 0 -73.5 -12.5t-69.5 -47.5 q-16 -16 -21.5 -35.5t-5.5 -35.5v-4z" />
<glyph unicode="'" horiz-adv-x="425" d="M86 1413q0 59 42 90t91 31q47 0 84 -28.5t37 -82.5q0 -8 -1 -15t-1 -15l-96 -531h-56l-96 506q0 4 -2 18.5t-2 26.5z" />
<glyph unicode="(" horiz-adv-x="724" d="M94 657q0 94 10.5 177.5t28 154t35.5 124.5t33 89q25 57 47 98t35 64q35 66 65.5 115t71.5 110h258q-10 -20 -20.5 -35.5t-20.5 -35.5q-23 -35 -38 -64t-34 -65q-35 -72 -81 -181.5t-78 -273.5q-18 -96 -22.5 -166t-2.5 -106q0 -41 3 -99.5t19 -148.5q14 -72 48 -195 t124 -295q29 -59 55.5 -104t61.5 -101h-266q-18 27 -50 78t-70 118t-75.5 146.5t-66.5 163.5q-29 80 -40 137.5t-15 90.5q-4 23 -9.5 80t-5.5 124z" />
<glyph unicode=")" horiz-adv-x="724" d="M35 1589h264q18 -29 51 -80t71 -117.5t76 -146.5t66 -164q27 -78 38 -136t15 -91q4 -23 10.5 -80t6.5 -125q0 -94 -11.5 -177t-29 -153.5t-35.5 -125t-33 -89.5q-25 -57 -46 -98t-34 -63q-35 -63 -66.5 -112.5t-70.5 -111.5h-260q12 18 21.5 34t21.5 36q20 35 35.5 63.5 t34.5 67.5q35 70 81 179.5t78 273.5q18 96 22.5 165.5t4.5 108.5l-5 97.5t-19 148.5q-12 70 -47 193.5t-123 295.5q-31 59 -56.5 104.5t-60.5 102.5z" />
<glyph unicode="*" horiz-adv-x="980" d="M59 1051l70 215l279 -117l-31 297h227l-26 -297l274 117l68 -215l-287 -66l194 -221l-182 -137l-153 258l-156 -258l-189 137l201 221z" />
<glyph unicode="+" horiz-adv-x="1366" d="M86 492v208h494v494h211v-494h489v-208h-489v-492h-211v492h-494z" />
<glyph unicode="," horiz-adv-x="468" d="M12 -238l123 525h297l-180 -525h-240z" />
<glyph unicode="-" horiz-adv-x="681" d="M72 440v230h540v-230h-540z" />
<glyph unicode="." horiz-adv-x="468" d="M88 0v287h291v-287h-291z" />
<glyph unicode="/" horiz-adv-x="724" d="M0 0l502 1446h227l-502 -1446h-227z" />
<glyph unicode="0" horiz-adv-x="1150" d="M70 715q0 100 8 169.5t14 110.5q6 29 15.5 74t31 96.5t54 104.5t85 96t125 71.5t170.5 30.5q4 0 10.5 1t12.5 1q16 0 72.5 -4t115.5 -32q53 -27 121 -91.5t113 -181.5q25 -63 37 -137t17 -138.5t6 -110.5t1 -56q2 -186 -26.5 -310t-75.5 -206q-6 -10 -26.5 -42t-57.5 -67 q-33 -33 -57.5 -47t-40.5 -22q-53 -29 -109.5 -40.5t-110.5 -11.5q-133 0 -222 50.5t-138 111.5q-23 29 -37 53.5t-18 34.5q-29 55 -47.5 119t-27.5 127t-12 126.5t-3 119.5zM362 700q0 -135 13.5 -226t36.5 -148q16 -43 36.5 -69t42 -41t42 -20.5t38.5 -5.5q53 0 92 34 t64 87q18 43 30.5 98.5t18.5 115t8 114.5t2 98q0 41 -2 101.5t-11 125t-26.5 125t-46.5 101.5q-35 47 -67.5 56t-46.5 9q-4 0 -6.5 -1t-4.5 -1q-31 0 -59 -16q-37 -16 -61.5 -46t-46.5 -95q-23 -66 -34.5 -158t-11.5 -238z" />
<glyph unicode="1" horiz-adv-x="1150" d="M127 1116l432 330h254v-1446h-293v1133l-246 -205z" />
<glyph unicode="2" horiz-adv-x="1150" d="M76 0v242q72 63 128 116.5t124 120.5q41 43 73.5 78t73.5 80q27 29 46.5 52.5t43.5 53.5q10 10 30.5 39t41.5 64q12 20 34.5 72.5t22.5 113.5q0 29 -9 63.5t-34.5 64.5t-69.5 50.5t-114 20.5q-37 0 -63.5 -4t-41.5 -8q-63 -14 -115 -41t-116 -64l-25 254q16 4 53.5 21.5 t80.5 29.5q37 12 125 29.5t192 19.5q92 2 182 -24.5t168 -112.5q53 -59 76 -129q16 -47 18.5 -84t2.5 -53q0 -63 -12.5 -113.5t-22.5 -72.5q-31 -82 -88.5 -165t-129 -165t-153.5 -163t-162 -159h608v-227h-968z" />
<glyph unicode="3" horiz-adv-x="1150" d="M80 25l14 243q43 -16 129 -42.5t199 -26.5q92 0 154.5 27.5t95.5 68.5q14 16 27.5 46t13.5 73q0 31 -12.5 68.5t-41.5 66.5q-12 12 -22 18t-14 11q-43 25 -107.5 36t-163.5 11q-23 0 -47 -1t-49 -1v231q20 -2 39 -2h39q117 0 196.5 20.5t126.5 73.5q14 18 28.5 48 t14.5 71q0 57 -25.5 93t-63.5 55.5t-82 25.5t-78 6q-55 0 -105.5 -8t-91.5 -20.5t-74 -24.5t-53 -21l-21 230q33 10 57.5 18t59.5 17q33 8 109 20t168 12q131 0 223 -27.5t145 -68.5q53 -39 92 -105.5t39 -172.5q0 -92 -29.5 -150.5t-70.5 -95.5q-29 -29 -65.5 -47.5 t-67.5 -30.5q-33 -14 -66 -25q12 0 39 -2t61 -12t71.5 -34.5t72.5 -71.5q27 -37 42 -75t22.5 -69.5t8.5 -56.5t1 -33q0 -92 -28.5 -148.5t-59.5 -92.5q-41 -47 -109.5 -89.5t-179.5 -64.5q-33 -6 -65.5 -10t-61.5 -6.5t-51 -2.5h-31q-53 0 -95 3.5t-81 8.5t-81 14t-95 22z " />
<glyph unicode="4" horiz-adv-x="1150" d="M43 295v231l528 920h369v-930h160v-221h-160v-295h-289v295h-608zM305 516h354l7 674z" />
<glyph unicode="5" horiz-adv-x="1150" d="M117 20v267q43 -20 115.5 -47t177.5 -27q82 0 140 19.5t95 53t55.5 77t18.5 90.5q0 8 -2 29.5t-11.5 50t-32 59.5t-61.5 59q-8 4 -12 8q-53 31 -106.5 39.5t-104.5 8.5q-76 0 -130 -10.5t-128 -30.5l12 780h834v-223h-561l-6 -301q20 4 39.5 7t56.5 3q84 0 134 -9.5 t89 -21.5q84 -29 141.5 -77t92 -108.5t50 -126t15.5 -128.5q0 -92 -26.5 -164t-66.5 -125t-89 -89t-96 -54q-74 -31 -154 -40t-152 -9q-115 0 -199.5 15t-127.5 25z" />
<glyph unicode="6" horiz-adv-x="1150" d="M88 666q2 229 48 390t130 253q59 63 130 97t133.5 47t106.5 14t54 1q104 -2 183 -20t120 -29l-30 -231q-66 27 -116 41t-116 16q-98 0 -162.5 -33.5t-99.5 -81.5q-18 -23 -28.5 -45t-14.5 -26q-31 -66 -40 -131.5t-19 -130.5q18 27 31.5 42t23.5 25q31 29 91 55.5 t144 26.5q70 0 150 -26.5t145 -92.5q47 -49 87 -143t40 -219q0 -41 -6 -90t-23.5 -98.5t-46 -97.5t-73.5 -87q-47 -43 -128 -76.5t-202 -33.5q-6 0 -44 1t-90 12t-111.5 37.5t-108.5 78.5q-33 35 -51.5 65.5t-24.5 46.5q-35 72 -59.5 176.5t-22.5 266.5zM389 475 q0 -37 10.5 -85t34 -90t62.5 -70.5t98 -28.5q57 0 94 26.5t58.5 65.5t29.5 84t8 82q0 53 -8 87t-18 56q-2 6 -8.5 19.5t-18.5 29.5q-20 27 -43.5 41.5t-44 21.5t-37 8t-20.5 1q-33 0 -64 -12q-53 -18 -79.5 -57.5t-39 -78t-13.5 -69.5z" />
<glyph unicode="7" horiz-adv-x="1150" d="M104 1221v225h940v-225l-509 -1221h-318l537 1221h-650z" />
<glyph unicode="8" horiz-adv-x="1150" d="M66 403q0 61 18 123t72 121q31 35 58.5 53.5t37.5 24.5q12 6 20.5 10t17.5 8.5t22.5 9.5t31.5 13q-29 10 -52.5 19.5t-51.5 29.5q-41 29 -68 64.5t-43 73.5t-22.5 76t-6.5 71q0 90 34 154.5t67 95.5q16 16 28.5 25t18.5 14q16 12 36.5 21t38 16.5t31 11.5t15.5 4 q74 23 136 25.5t89 2.5q41 0 90 -5t98 -18t97.5 -39t85.5 -67q27 -27 53 -81q16 -33 22.5 -67t8.5 -65q2 -57 -19.5 -121.5t-71.5 -119.5q-10 -12 -26.5 -27.5t-44.5 -32.5q-14 -10 -33.5 -19.5t-52.5 -21.5q27 -10 52.5 -19t47.5 -24q72 -39 110 -93t54 -105t18 -90t2 -45 q0 -29 -8 -86.5t-42 -119t-99.5 -118.5t-177.5 -86q-59 -16 -112.5 -18t-70.5 -2q-90 -2 -190 19t-188 99q-49 45 -74 86t-33 62q-18 47 -21 96t-3 61zM362 412q0 -41 10.5 -72t20.5 -47q25 -39 56.5 -58.5t61.5 -28.5t52.5 -10t26.5 -1q35 0 56.5 6t35.5 12q43 20 64.5 50 t30.5 57.5t10 50t1 26.5q0 23 -4 42.5t-8 23.5q-20 59 -63 96t-99 59q-18 8 -32.5 14.5t-32.5 12.5q-25 -12 -53 -29q-18 -10 -41 -28.5t-43.5 -44t-33.5 -58t-16 -73.5zM383 1096q0 -33 8 -53.5t17 -32.5q29 -47 73.5 -75t124.5 -61q27 16 50.5 33t45.5 39q16 16 40 55 t26 91q0 23 -4 43t-16 43q-18 33 -47 50t-56 24.5t-46 8.5t-21 1q-33 0 -68 -10.5t-63.5 -30t-47 -51t-16.5 -74.5z" />
<glyph unicode="9" horiz-adv-x="1150" d="M70 985q0 51 8 109.5t30.5 115t64.5 106.5t108 89q41 25 109.5 45t168.5 20q166 -2 264.5 -66.5t150.5 -163.5t68.5 -220t16.5 -234q0 -215 -37 -362.5t-98 -237.5q-31 -45 -57.5 -68.5t-47.5 -39.5q-86 -63 -183 -83t-183 -20q-104 0 -183.5 17.5t-117.5 27.5l34 236 q35 -14 93.5 -34.5t144.5 -20.5q74 0 127 21.5t91 55t61.5 73.5t35.5 77q16 43 22.5 82t12.5 80q2 39 8 74q-14 -25 -25.5 -45.5t-39.5 -45.5q-29 -27 -86.5 -49t-134.5 -24q-53 -2 -95.5 8t-60.5 16q-25 8 -56.5 26.5t-64.5 48.5t-63.5 73t-53.5 102q-12 35 -22 84t-10 127 zM358 987q0 -12 2 -48t19 -75q6 -18 19.5 -41.5t36 -45t54 -36t74.5 -16.5q78 -2 134.5 60.5t56.5 193.5q0 45 -13.5 104.5t-48.5 102.5q-14 18 -25.5 27.5t-17.5 13.5q-29 20 -55.5 24t-36.5 4q-33 0 -70 -16q-8 -4 -27.5 -15.5t-39.5 -33.5q-6 -8 -8 -11t-6 -10 q-29 -45 -38.5 -92t-9.5 -90z" />
<glyph unicode=":" horiz-adv-x="555" d="M172 0v287h293v-287h-293zM172 786v287h293v-287h-293z" />
<glyph unicode=";" horiz-adv-x="555" d="M76 -238l125 525h297l-181 -525h-241zM172 786v287h293v-287h-293z" />
<glyph unicode="&#x3c;" horiz-adv-x="1366" d="M0 614v213l1366 625v-231l-1083 -500l1083 -498v-229z" />
<glyph unicode="=" horiz-adv-x="1366" d="M0 299v211h1366v-211h-1366zM0 684v211h1366v-211h-1366z" />
<glyph unicode="&#x3e;" horiz-adv-x="1366" d="M0 -6v229l1081 498l-1081 500v231l1366 -625v-213z" />
<glyph unicode="?" horiz-adv-x="1024" d="M102 1405q57 14 106.5 26.5t95.5 21.5t95.5 13t106.5 4h39q33 0 76 -6t93 -20t95 -41q68 -41 102.5 -87t50 -88t17.5 -77t2 -49q-4 -98 -39 -161.5t-72 -109.5q-23 -27 -42 -48t-42 -48q-29 -31 -48 -53.5t-32.5 -39.5t-23.5 -32.5t-18 -34.5q-23 -43 -27 -79.5t-6 -79.5 h-252q2 51 6 90t10 69.5t15.5 56t25.5 52.5q27 43 56.5 78t64.5 72q53 63 88 119.5t33 121.5q-4 76 -62.5 124t-181.5 46q-111 -2 -186.5 -29.5t-122.5 -48.5zM365 0v270h286v-270h-286z" />
<glyph unicode="@" horiz-adv-x="1835" d="M141 481q0 27 5.5 105t36 182t96 222t186.5 229q16 16 31.5 28.5t33.5 26.5q39 31 91.5 62.5t120 58t147.5 44t174 19.5h59t107.5 -12t133.5 -41t136 -84q23 -18 37 -34.5t20 -22.5q53 -59 93.5 -151.5t44.5 -233.5q2 -76 -8.5 -134.5t-16.5 -87.5q-29 -127 -80 -224 t-114.5 -163.5t-134 -99.5t-136.5 -29q-6 0 -24.5 2t-41 11.5t-47 27t-38.5 49.5q-10 23 -13.5 42.5t-3.5 25.5q-10 -12 -18 -22.5t-19 -20.5q-37 -41 -73.5 -63.5t-67.5 -34t-56.5 -14.5t-41.5 -3q-41 0 -71 9.5t-46 17.5q-72 35 -116 111.5t-44 199.5q0 14 3 61.5 t19.5 112t50.5 138t95 141.5t131 100.5t142 32.5q6 0 25.5 -1t44 -8t53 -22.5t55.5 -44.5q18 -20 27.5 -34.5t19.5 -36.5l25 104h161l-67 -315q-4 -23 -14.5 -71t-19.5 -101.5t-16.5 -101.5t-7.5 -71q0 -76 52 -75q16 0 33.5 8t31.5 18.5t25.5 21.5t15.5 15q49 53 97 146.5 t71 224.5q4 14 8 54t4 83q0 10 -1 36t-6 58.5t-16.5 71.5t-31.5 78q-6 10 -24.5 38.5t-51.5 59.5q-53 49 -113.5 74.5t-113.5 36t-92 10.5h-47q-145 -4 -294 -70.5t-272 -212.5q-33 -39 -69.5 -96t-67.5 -131t-50 -162t-15 -188q4 -158 60 -262.5t136 -169.5 q37 -29 65.5 -45.5t41.5 -22.5q51 -27 101 -42t94 -23.5t77 -10.5t47 -2q96 -2 179 14.5t153 43t124 58.5t93 58q25 16 60.5 44t89.5 81l82 -104q-45 -45 -76 -69.5t-54 -41.5q-156 -119 -313.5 -170t-312.5 -51q-68 0 -145.5 12.5t-156.5 39t-154 69.5t-136 104 q-14 12 -36.5 38t-47.5 65q-10 16 -29.5 51t-36.5 78q-16 45 -26 89t-14.5 81t-5.5 65.5t-1 42.5zM670 500q-2 -61 14 -103.5t45 -64.5q16 -14 25 -17q23 -14 42 -16t27 0q53 2 94 34t58 52q31 35 52.5 78t34.5 87t20.5 87t7.5 78q0 39 -9 69q-16 59 -56 93t-93 32 q-43 -2 -75 -19.5t-48 -33.5q-37 -35 -63.5 -81t-43 -95t-24.5 -97t-8 -83z" />
<glyph unicode="A" horiz-adv-x="1492" d="M6 0l572 1446h327l576 -1446h-320l-125 330h-600l-123 -330h-307zM526 563h420l-115 328q-29 84 -49 152.5t-45 154.5q-14 -53 -23 -88t-20.5 -66.5t-24 -67.5t-32.5 -87z" />
<glyph unicode="B" horiz-adv-x="1193" d="M131 0v1446h438q72 0 148 -4t145 -33q12 -4 53 -24.5t82 -65.5q35 -37 61.5 -94.5t26.5 -143.5q0 -55 -18 -119.5t-78 -117.5q-16 -16 -28.5 -23.5t-28.5 -17.5q-10 -4 -32.5 -15.5t-47.5 -17.5q-23 -8 -35 -9t-35 -5q55 -4 100.5 -14.5t100.5 -45.5q4 -4 25.5 -18 t42.5 -37q33 -35 51 -74t26.5 -71.5t9.5 -57t1 -32.5q0 -86 -26 -146.5t-54 -95.5q-49 -61 -108.5 -94t-122 -48.5t-124 -18.5t-112.5 -3h-461zM416 223q23 0 42 -1t42 -1h16q53 0 112.5 5t110.5 34q41 20 55.5 41t24.5 37q8 12 15.5 37.5t7.5 58.5q0 8 -2 31.5t-13.5 51.5 t-36 56.5t-67.5 47.5q-43 18 -85 22t-85 4h-137v-424zM416 862q23 0 42 -1t42 -1q94 0 154.5 12.5t101.5 59.5q23 25 31 56.5t8 55.5q0 31 -7.5 53.5t-13.5 32.5q-31 53 -89 75t-150 22q-33 0 -58.5 -1t-60.5 -1v-363z" />
<glyph unicode="C" d="M59 723q0 96 14.5 165.5t26.5 108.5q61 193 196.5 301.5t309.5 147.5q31 8 88.5 15t134.5 7q127 -2 209 -21.5t136 -35.5l-23 -248q-16 8 -29.5 14.5t-31.5 14.5q-37 14 -75 22.5t-70 12.5t-56.5 5t-34.5 1q-57 0 -118.5 -10.5t-119 -39t-108.5 -77.5t-86 -125 q-16 -33 -32 -95q-15 -56 -15 -131v-18q0 -61 15.5 -130.5t49 -136.5t91 -124t143.5 -90q29 -12 76 -22.5t114 -10.5q27 0 60.5 3t67.5 8.5t67 12.5t59 17q16 4 27.5 10.5t28.5 12.5l16 -258q-49 -12 -90 -21.5t-81 -15.5t-81 -9t-90 -3q-80 0 -158 9t-153 34 q-164 51 -283 172q-49 49 -86 107t-62 124q-27 72 -37 146.5t-10 150.5z" />
<glyph unicode="D" horiz-adv-x="1409" d="M129 0v1446h373q72 -2 154.5 -6t166.5 -21.5t167 -55.5t157 -108q10 -12 29.5 -33.5t42.5 -50.5q53 -72 89 -175q34 -98 33 -246v-17q0 -45 -2 -73.5t-4 -49.5q-2 -16 -9 -58t-25.5 -98.5t-52.5 -121t-89 -123.5q-74 -78 -159 -121t-174 -62.5t-175 -22.5t-159 -3h-363z M424 223q47 0 99 1t105.5 8.5t105.5 23.5t100 47q35 23 52 40l32 32q18 20 30 39q33 49 51.5 99t27.5 93t10 75t1 44q0 111 -27.5 183.5t-60.5 119.5q-72 104 -183.5 150.5t-297.5 46.5h-45v-1002z" />
<glyph unicode="E" horiz-adv-x="1067" d="M131 0v1446h858v-244h-561v-344h514v-237h-514v-377h567v-244h-864z" />
<glyph unicode="F" horiz-adv-x="980" d="M131 0v1446h803v-248h-508v-344h487v-238h-487v-616h-295z" />
<glyph unicode="G" horiz-adv-x="1449" d="M63 715q0 70 10.5 145.5t37 150t74.5 146.5t122 133q66 57 143.5 93t145.5 55q47 12 93 18t85 9t68.5 4t44.5 1q74 0 131 -6t103 -14t84 -19.5t75 -21.5l-20 -258q-59 29 -147.5 56.5t-223.5 27.5h-41t-68 -6t-85 -19.5t-89 -38.5q-4 -2 -27.5 -16t-43.5 -31 q-72 -61 -117 -160q-43 -94 -43 -233v-12q0 -20 4 -74.5t27 -120.5q27 -78 68.5 -131t86.5 -87t87 -51t69 -24q49 -14 94 -16t59 -2q66 0 111 10t74 19v356h-303v227h573v-764q-55 -20 -86 -28t-57 -15q-45 -10 -138.5 -24t-214.5 -14q-217 0 -359 63t-228 156 q-68 74 -122 201.5t-57 314.5z" />
<glyph unicode="H" horiz-adv-x="1409" d="M131 0v1446h295v-578h557v578h293v-1446h-293v621h-557v-621h-295z" />
<glyph unicode="I" horiz-adv-x="555" d="M131 0v1446h293v-1446h-293z" />
<glyph unicode="J" horiz-adv-x="768" d="M27 12l8 246q35 -10 61.5 -15t63.5 -5q33 0 72.5 8t68.5 43q20 23 30.5 54.5t15.5 65t6 65.5t1 54v918h295v-950q0 -35 -1 -77t-5 -85t-13 -84t-28 -76q-27 -53 -59.5 -82t-55.5 -43q-61 -41 -122.5 -54t-122.5 -13q-82 0 -128 10t-87 20z" />
<glyph unicode="K" horiz-adv-x="1280" d="M131 0v1446h289v-625q23 31 42 55.5t44 53.5q20 25 35.5 44t36.5 42l368 430h359l-451 -502l-145 -164l628 -780h-383l-405 518q-23 29 -43.5 54.5t-40.5 54.5q-10 16 -21.5 32.5t-23.5 32.5v-692h-289z" />
<glyph unicode="L" horiz-adv-x="1024" d="M131 0v1446h295v-1200h559v-246h-854z" />
<glyph unicode="M" horiz-adv-x="1921" d="M133 0v1446h473l135 -395q23 -72 42.5 -127.5t41.5 -126.5q16 -55 28.5 -99.5t29.5 -101.5q10 -35 18 -61.5t19 -61.5q10 -41 18 -72.5t18 -72.5q8 25 13.5 45t13.5 47q16 53 29.5 96t29.5 96q12 41 21.5 74t21.5 74l226 686h469v-1446h-291l14 1268q-10 -31 -15 -55.5 t-15 -55.5q-10 -35 -19.5 -61.5t-19.5 -61.5l-351 -1034h-274l-311 954q-12 43 -22.5 78t-24.5 78q-10 39 -21.5 69.5t-23.5 69.5v-1249h-273z" />
<glyph unicode="N" horiz-adv-x="1449" d="M131 0v1446h350l396 -725q23 -41 38 -75t37 -75q25 -49 44.5 -88t41.5 -88q10 -25 18.5 -44t18.5 -44q-6 57 -10 103.5t-6 105.5q-4 39 -4 70v69l-8 791h270v-1446h-344l-438 813q-31 55 -51.5 92t-36 69t-31 68.5t-37.5 92.5q8 -92 11 -166t7 -168l6 -801h-272z" />
<glyph unicode="O" horiz-adv-x="1536" d="M63 713q0 18 1.5 70.5t14.5 125t44 154.5t90 158q8 10 13 16t14 14q63 70 133.5 113t133 65.5t109 30.5t62.5 10q27 4 47 5.5t47 1.5q10 2 19 2h20q59 0 118.5 -8.5t117.5 -26.5q127 -45 221 -135q55 -55 94 -125t63 -146q27 -76 38.5 -153.5t13.5 -155.5 q0 -160 -50 -313q-25 -72 -63.5 -139.5t-91.5 -120.5q-51 -53 -113.5 -90t-130.5 -60q-66 -23 -132 -30q-51 -5 -102 -5h-30q-82 0 -133 8.5t-88 18.5q-182 49 -295 176t-156 301q-20 80 -23 145.5t-6 92.5zM371 717q0 -147 39 -249.5t96 -162.5q59 -63 131 -87.5t137 -24.5 q10 0 33.5 1t55.5 8t69 23.5t72 44.5q12 10 32.5 31t40.5 49q29 45 47.5 99.5t26.5 97.5q6 29 13 77q5 37 5 87v30q-4 131 -35.5 229.5t-70.5 149.5q-27 35 -48.5 52.5t-33.5 25.5q-33 23 -65.5 35t-61.5 17t-51 5h-29q-41 -2 -83 -10t-79 -26q-39 -20 -67.5 -45t-36.5 -35 q-57 -63 -97 -166t-40 -256z" />
<glyph unicode="P" horiz-adv-x="1150" d="M131 0v1446h410q88 0 179 -9.5t179 -60.5q43 -27 76 -56.5t61 -74.5q27 -41 41.5 -80t20.5 -71.5t7 -58t1 -38.5q0 -12 -2 -49t-17.5 -85t-47 -102t-91.5 -104q-14 -10 -34 -23l-19 -13q-84 -51 -177 -65q-81 -12 -155 -11h-22q-29 0 -58.5 1t-58.5 1v-547h-293zM420 776 q23 -2 43 -3t43 -1q35 0 67.5 2t65.5 12q59 16 104 58q57 63 58 157q0 59 -29 116t-102 85q-29 10 -67 16.5t-101 6.5q-20 0 -40 -1t-42 -1v-447z" />
<glyph unicode="Q" horiz-adv-x="1536" d="M59 709q0 29 5.5 99.5t27.5 156.5q33 123 87 210t118.5 143t135.5 88t135.5 48t117.5 19.5t84 3.5q92 0 188.5 -17.5t188.5 -70.5q27 -16 68.5 -45t91.5 -89q31 -37 61.5 -88t54 -115.5t38 -144.5t14.5 -172t-14.5 -173t-38 -148.5t-52.5 -119.5t-59 -89 q-10 -12 -29.5 -35t-54.5 -51q-27 -23 -43.5 -32t-26.5 -17q-16 -10 -33.5 -16.5t-21.5 -8.5l344 -319h-359l-245 247q-20 -2 -39 -2h-37q-166 0 -278.5 46t-182.5 104q-4 4 -7 6t-7 6q-94 82 -163 224.5t-69 351.5zM375 725q0 -143 35.5 -243.5t85.5 -159.5 q59 -72 128.5 -99.5t137.5 -27.5q57 0 118.5 19t114.5 67q66 57 100.5 134t50 145.5t16.5 116.5t1 50q0 152 -42 257.5t-101 166.5q-8 8 -14.5 13t-16.5 14q-29 25 -49 36t-31 15q-45 18 -86 21t-53 3q-33 0 -64.5 -5t-62.5 -17q-10 -4 -34.5 -15.5t-53.5 -33.5 q-57 -45 -92 -103.5t-54.5 -120t-26.5 -123t-7 -110.5z" />
<glyph unicode="R" d="M131 0v1446h444q47 0 107.5 -2t123 -14.5t122 -38t104.5 -72.5q14 -14 25.5 -31.5t21.5 -34.5q16 -31 25.5 -60.5t13.5 -56t5 -46t1 -27.5q0 -104 -40 -172t-93 -107q-10 -6 -19 -12t-26 -14q-35 -16 -68.5 -22.5t-68.5 -10.5q4 -2 20.5 -4t32.5 -6q27 -10 48.5 -30.5 t39 -45.5t28.5 -51.5t21 -46.5l222 -541h-324l-139 362q-33 78 -55.5 127.5t-63.5 79.5q-16 12 -29.5 17.5t-29.5 9.5q-20 4 -61.5 5t-94.5 1v-602h-293zM420 829q35 -2 65 -2h68q27 0 58.5 1t63.5 10.5t61.5 29t54.5 54.5q10 16 21 44q9 24 9 56v12q0 37 -10 63.5t-20 43.5 q-27 37 -70 55t-111 23q-16 0 -26.5 1t-24.5 1h-139v-392z" />
<glyph unicode="S" horiz-adv-x="1067" d="M66 1047q0 63 11 104t23 70q27 63 70 106t85 68.5t77 37t47 15.5q51 14 101 18t100 4q63 0 113 -5t91 -12t74 -15t62 -17l-25 -239q-18 8 -28.5 12t-17.5 7t-14.5 5t-19.5 6q-72 23 -124 28t-81 5q-66 0 -113.5 -14t-72.5 -37q-35 -27 -47 -60.5t-12 -60.5 q0 -37 11 -61.5t23 -38.5q23 -27 53.5 -43.5t82.5 -36.5q33 -12 57 -22.5t57 -22.5q94 -35 155.5 -72t100.5 -78t61.5 -84t32 -80.5t11.5 -65.5t2 -40v-11q0 -69 -22 -141q-24 -78 -91 -147q-25 -29 -55 -49q-47 -35 -96.5 -53.5t-59.5 -20.5q-53 -16 -107.5 -20t-107.5 -4 q-10 0 -37.5 1t-65.5 4t-82 8t-87 15q-29 6 -51.5 12.5t-51.5 16.5l25 262q37 -20 58.5 -29.5t37.5 -15.5q53 -20 115.5 -31.5t116.5 -11.5q74 0 142.5 26.5t98.5 96.5q4 8 9.5 26.5t5.5 40.5q0 31 -13.5 64t-44.5 59q-35 33 -106.5 59.5t-165.5 67.5q-27 12 -47.5 21.5 t-44.5 23.5q-35 16 -60.5 36t-38.5 30q-74 66 -97 138.5t-23 144.5z" />
<glyph unicode="T" horiz-adv-x="1150" d="M16 1202v244h1121v-244h-414v-1202h-295v1202h-412z" />
<glyph unicode="U" horiz-adv-x="1409" d="M111 629v817h292v-768q0 -74 3.5 -132.5t12.5 -106.5t28.5 -87t54.5 -71q33 -31 86 -55q49 -22 119 -21h12t24.5 1t42 5t51 15.5t54.5 29.5q43 33 67.5 74t37 83t14.5 84t2 76q2 16 2 31v31v811h278v-856v-72q0 -35 -4 -69q-6 -88 -37 -170q-35 -86 -100 -152 q-37 -37 -82 -64.5t-92 -44.5q-66 -25 -134.5 -33t-140.5 -8q-43 0 -95 4.5t-105 15.5t-104.5 30.5t-96.5 52.5q-20 14 -31.5 25.5l-21.5 21.5q-63 66 -88 137.5t-35 136.5q-8 59 -10 114.5t-4 113.5z" />
<glyph unicode="V" horiz-adv-x="1323" d="M-12 1446h309l258 -791q18 -57 32.5 -101t30.5 -99q16 -53 28.5 -97.5t29.5 -97.5q16 53 30.5 99.5t28 91.5t27.5 91t31 99l258 805h286l-493 -1446h-357z" />
<glyph unicode="W" horiz-adv-x="2048" d="M-2 1446h301l205 -846q20 -96 38.5 -175t41.5 -173q10 49 15 89t15 89t18.5 89t18.5 89l178 838h390l167 -715q16 -66 30 -123t25 -113.5t22.5 -114.5t23.5 -124q14 70 27.5 132.5t26.5 121.5t26.5 120.5t29.5 133.5l162 682h285l-377 -1446h-375l-198 858 q-23 96 -39.5 175t-34.5 175q-10 -49 -15.5 -89t-15.5 -89q-10 -47 -18 -85t-19 -85l-190 -860h-377z" />
<glyph unicode="X" horiz-adv-x="1366" d="M2 0l475 762l-438 684h342l205 -342q29 -49 51 -89t51 -91l318 522h321l-455 -684l484 -762h-350l-340 584q-23 -37 -38.5 -67t-37.5 -66q-16 -29 -29.5 -51.5t-30.5 -51.5l-202 -348h-326z" />
<glyph unicode="Y" horiz-adv-x="1323" d="M-12 1446h338l176 -318q25 -43 45 -77.5t45 -77.5q23 -41 40 -73t40 -73q20 41 37.5 74t40.5 74q23 43 43 77.5t45 75.5l182 318h313l-522 -858v-588h-293v580z" />
<glyph unicode="Z" horiz-adv-x="1110" d="M43 0v248l668 958h-645v240h962v-262l-659 -946h682v-238h-1008z" />
<glyph unicode="[" horiz-adv-x="681" d="M158 -281v1872h460v-192h-206v-1487h206v-193h-460z" />
<glyph unicode="\" horiz-adv-x="724" d="M29 1446h211l467 -1483h-209z" />
<glyph unicode="]" horiz-adv-x="681" d="M63 -88h207v1487h-207v192h461v-1872h-461v193z" />
<glyph unicode="^" horiz-adv-x="1492" d="M262 662l400 784h186l383 -784h-242l-239 503l-248 -503h-240z" />
<glyph unicode="_" horiz-adv-x="1024" d="M-20 -256h1064v-211h-1064v211z" />
<glyph unicode="`" horiz-adv-x="555" d="M-242 1509h283l172 -299h-174z" />
<glyph unicode="a" horiz-adv-x="1110" d="M37 311q2 86 31.5 142.5t70.5 91.5q66 59 176.5 88t270.5 31h12q41 0 72.5 -1t72.5 -6q-4 37 -8 79t-30 79q-25 35 -66 55.5t-111 24.5h-26q-78 -2 -132.5 -18.5t-86.5 -30.5l-43 -21.5t-66 -44.5l-8 242q33 12 68.5 24.5t78.5 22.5t97.5 17.5t121.5 7.5q39 0 84.5 -2 t89.5 -13.5t88 -32t83 -53.5q20 -18 47.5 -51t44.5 -84q20 -53 23 -127t3 -127v-254q0 -96 2 -175t7 -175h-248v158q-12 -23 -38 -54.5t-79 -64.5q-59 -35 -119.5 -46t-120.5 -11q-111 0 -181.5 32.5t-111 82.5t-55 107.5t-14.5 106.5zM322 315q0 -23 8 -48t27.5 -47.5 t51 -37t80.5 -14.5q25 0 63 9t77 35t70.5 72t43.5 119q4 23 5.5 51.5t1.5 30.5q-27 2 -52.5 3t-54.5 1q-111 0 -190.5 -21.5t-114.5 -82.5q-16 -31 -16 -70z" />
<glyph unicode="b" d="M121 0v1565h274v-660q16 29 28.5 44.5t22.5 27.5q39 41 109 77t172 38q29 0 84 -7.5t116.5 -38t118 -93t91.5 -173.5q10 -35 21 -90t11 -137v-13q0 -166 -50 -280q-52 -119 -128 -184q-12 -10 -34.5 -26.5t-55.5 -31.5q-57 -27 -112.5 -31.5t-69.5 -4.5q-106 0 -178 32.5 t-113 83.5q-16 23 -27.5 43.5t-15.5 24.5v-166h-264zM397 528q0 -47 8.5 -93t30.5 -93q10 -18 21.5 -36.5t27.5 -35.5q25 -27 50.5 -41t47 -20t38.5 -6h24q12 0 50 6t79 41q33 29 54.5 66.5t33.5 77.5t16.5 78t4.5 69q0 49 -9.5 100t-31.5 98q-10 23 -22.5 40.5t-22.5 27.5 q-20 18 -56.5 38.5t-87.5 20.5q-41 0 -84 -16q-55 -23 -89 -61.5t-52 -85t-24.5 -92.5t-6.5 -83z" />
<glyph unicode="c" horiz-adv-x="894" d="M59 543q0 131 33 217t80 141q47 57 92 87t64 40q80 39 168 51q10 2 47 6.5t73 4.5q78 0 132.5 -12.5t87.5 -22.5l-19 -224q-29 12 -66.5 24.5t-97.5 12.5q-66 0 -113.5 -17t-81.5 -45t-56.5 -62.5t-34.5 -69.5q-16 -43 -17.5 -84t-1.5 -53q0 -55 15.5 -121t66.5 -121 q53 -53 114.5 -71.5t114.5 -18.5q70 0 114 16.5t75 32.5l18 -234q-39 -10 -104.5 -25t-157.5 -15q-147 0 -244.5 47t-156.5 110q-6 8 -10.5 13.5t-10.5 11.5q-37 45 -57.5 86t-24.5 53q-31 78 -36 146.5t-5 95.5z" />
<glyph unicode="d" d="M57 532q0 154 40 257.5t100 168.5q59 61 111 85t75 30q43 12 79 14.5t52 2.5q72 0 148.5 -26t136.5 -108q12 -18 21 -35.5t26 -52.5v697h270v-1565h-264v209q-10 -25 -18.5 -47.5t-28.5 -46.5q-41 -53 -116 -93t-185 -40q-20 0 -71.5 5t-110.5 33q-117 55 -191 182.5 t-74 329.5zM348 506q0 -23 4 -53.5t13.5 -65.5t27.5 -68q6 -10 18.5 -28.5t39.5 -40.5q35 -29 69.5 -40t69.5 -11q12 0 45 4t67 26q35 20 65 56.5t50 103.5q16 47 18.5 86t2.5 53q0 31 -5.5 69t-17.5 77t-34.5 74.5t-57.5 64.5q-18 16 -55 32.5t-84 16.5t-84 -14 q-35 -14 -56.5 -33.5t-31.5 -36.5q-30 -37 -48 -96q-17 -53 -16 -128v-17v-31z" />
<glyph unicode="e" horiz-adv-x="1110" d="M55 524q0 100 18.5 170t37.5 111q10 18 20 38.5t12 24.5q10 14 19.5 27.5t21.5 26.5q59 72 153.5 123t237.5 51q131 0 222.5 -45t150 -120t85 -174.5t26.5 -207.5v-55q0 -25 -2 -54h-731q2 -4 10 -39.5t29 -66.5q27 -45 62.5 -73t73.5 -43t76.5 -21.5t73.5 -6.5 q61 0 126 14.5t126 45.5q25 10 50.5 26.5t31.5 20.5l4 -240q-61 -27 -148 -53.5t-223 -26.5h-36q-25 0 -56.5 3.5t-70.5 11.5t-78 22q-63 25 -121.5 67t-102.5 104.5t-71 146.5t-27 192zM326 635h477q-4 45 -12.5 89t-40.5 87q-25 33 -51.5 50.5t-51 25.5t-44 10t-28.5 2 q-6 0 -28.5 -2t-52 -11t-61.5 -30.5t-58 -60.5q-33 -53 -40 -98.5t-9 -61.5z" />
<glyph unicode="f" horiz-adv-x="768" d="M0 864v209h213q0 61 4 135t25 135q29 86 73.5 127t85.5 62q31 14 62 22.5t57.5 11.5t46.5 3h29q43 0 76 -4t78 -13l-19 -223q-10 2 -31.5 7t-48.5 5t-55.5 -7t-52.5 -31q-37 -35 -44 -90.5t-10 -139.5h242v-209h-242v-864h-276v864h-213z" />
<glyph unicode="g" d="M70 545q0 55 11 121.5t37.5 133t70.5 126t112 102.5q55 35 112.5 50.5t114.5 15.5q59 0 136 -23.5t137 -77.5q16 -14 28.5 -28.5t34.5 -42.5v151h266v-805q0 -106 -4 -192t-16 -157t-35.5 -127t-64.5 -103q-29 -33 -53.5 -51.5t-38.5 -26.5q-55 -35 -110.5 -53.5 t-103 -25.5t-83 -8t-50.5 -1q-96 0 -172.5 14t-111.5 25q-29 10 -51.5 18t-51.5 19l25 241q111 -61 193.5 -76.5t123.5 -15.5q37 0 84 7t92.5 26.5t83 55.5t56.5 91q10 29 15 65t9 97q4 33 5 57.5t3 57.5q-16 -29 -28 -48.5t-23 -31.5q-47 -55 -96 -85t-92 -42t-75 -14 t-44 -2q-80 0 -136 22.5t-89 44.5q-31 20 -50.5 40t-29.5 30q-37 41 -56.5 75.5t-27.5 49.5q-14 35 -25.5 76.5t-17.5 74.5q-6 35 -10 75t-4 75zM362 553q0 -33 3.5 -72t13.5 -79t30.5 -77.5t55.5 -68.5q18 -16 52 -32.5t81 -16.5q6 0 25.5 2t44 10t53.5 24.5t55 45.5 q47 49 61.5 106.5t18.5 108.5q2 10 2 16v19q0 47 -5 75.5t-9 49.5q-25 92 -87.5 150t-150.5 58q-43 0 -80 -14q-78 -29 -121 -102.5t-43 -202.5z" />
<glyph unicode="h" d="M115 0v1565h276v-654q12 18 27.5 39t50.5 49q43 35 86 53.5t80 26.5t64.5 9.5t39.5 1.5q78 0 134.5 -18.5t87.5 -39.5q55 -35 85.5 -83t46 -111.5t19.5 -140t4 -171.5v-526h-276v545q-2 53 -7.5 120.5t-35.5 118.5q-6 12 -18.5 27.5t-41.5 32.5q-29 16 -56.5 19t-35.5 3 q-76 0 -124 -30.5t-72 -69.5q-23 -33 -34.5 -72t-15.5 -79t-5 -78.5t-1 -71.5v-465h-278z" />
<glyph unicode="i" horiz-adv-x="512" d="M117 0v1073h278v-1073h-278zM117 1270v258h278v-258h-278z" />
<glyph unicode="j" horiz-adv-x="512" d="M-70 -442l11 200h20q8 0 28.5 1t44 10.5t45 31t32.5 64.5q4 18 5 34.5t1 51.5v1122h276v-754q0 -88 -1 -158.5t-1 -158.5q0 -39 1 -70v-12q0 -26 -3 -57q-4 -31 -6 -51.5t-6 -34.5q-2 -6 -6 -23.5t-14.5 -40t-28 -48t-43.5 -50.5q-53 -45 -113.5 -59.5t-112.5 -14.5 q-39 0 -64.5 3t-64.5 14zM117 1270v258h276v-258h-276z" />
<glyph unicode="k" horiz-adv-x="1067" d="M121 0v1565h276v-926q27 39 48.5 68.5t50.5 64.5l241 301h322l-400 -473l451 -600h-344l-236 326q-41 55 -69.5 101t-63.5 105v-532h-276z" />
<glyph unicode="l" horiz-adv-x="512" d="M115 0v1565h278v-1565h-278z" />
<glyph unicode="m" horiz-adv-x="1835" d="M111 1073h266v-164q25 35 40 52.5t32 31.5q41 37 83.5 56.5t80.5 28.5t66 11.5t38 2.5q33 0 67.5 -6.5t70.5 -21.5t68.5 -41t61.5 -67q12 -20 18.5 -33.5t16.5 -33.5q18 31 32.5 48t26.5 30q43 49 92.5 73.5t91.5 35.5t73.5 12.5t41.5 1.5q12 0 45 -2.5t75 -17.5t86 -50 t79 -98q37 -72 44 -139.5t7 -137.5v-645h-276v551q0 100 -8.5 167.5t-59.5 108.5q-33 23 -62.5 27t-37.5 4q-43 0 -72 -14.5t-45 -28.5q-35 -31 -54.5 -74t-28.5 -88t-11 -89t-2 -77q-2 -20 -2 -36v-39v-412h-277v610q0 23 -1 52.5t-7 59.5t-19.5 57.5t-39.5 49.5 q-29 25 -58.5 29t-38.5 4q-12 0 -47 -7t-71 -36q-59 -47 -80 -119.5t-21 -189.5v-510h-278v872q-2 55 -3 100.5t-3 100.5z" />
<glyph unicode="n" d="M111 1073h268v-166q18 25 41 49q31 35 61.5 53.5t40.5 24.5q61 35 114.5 45.5t113.5 10.5q78 0 128 -16.5t83 -37.5q16 -10 39.5 -29.5t52.5 -60.5q25 -33 38 -71.5t19 -86t8 -106.5t4 -133v-549h-276v518q-2 96 -8.5 152.5t-28.5 101.5q-14 27 -32.5 44.5t-47.5 31.5 q-10 4 -31.5 10t-50.5 6q-14 2 -54 -5t-85 -42q-37 -29 -58.5 -63.5t-31.5 -75.5t-14.5 -85t-4.5 -91v-502h-280v815q0 72 -2 129t-6 129z" />
<glyph unicode="o" d="M61 541q2 145 49.5 245.5t108.5 159.5q37 35 64.5 51.5t40.5 24.5q41 23 115.5 47.5t178.5 24.5q63 0 126 -11.5t120 -35.5q86 -37 140.5 -90.5t87 -106.5t48 -99t19.5 -67q12 -51 14.5 -91t2.5 -56q0 -111 -30 -198t-78 -151.5t-108.5 -106.5t-121.5 -65 q-72 -27 -135.5 -30.5t-86.5 -3.5q-51 0 -101 7t-99 23q-61 20 -125 63.5t-115 108t-83 153.5t-32 204zM354 543q0 -92 26 -162t54 -105q25 -29 46.5 -44t31.5 -19q35 -18 66.5 -21.5t42.5 -3.5q59 0 100 20.5t63 43.5q47 44 73 116q24 67 24 167v16q-2 61 -17.5 135 t-75.5 133q-29 29 -67.5 49.5t-99.5 20.5q-41 0 -84 -17q-27 -10 -47.5 -23t-28.5 -22q-45 -39 -76 -109.5t-31 -174.5z" />
<glyph unicode="p" d="M111 1073h266l6 -166q10 10 32.5 40t57.5 59q37 29 104.5 58.5t159.5 29.5q72 0 122 -17.5t79 -34.5q104 -59 168.5 -181t64.5 -310q0 -49 -6 -109.5t-23.5 -122t-48 -120t-77.5 -105.5q-41 -41 -116 -77.5t-183 -39.5q-53 0 -103.5 12.5t-101.5 41.5q-31 18 -50.5 35.5 t-29.5 27.5q-10 12 -19.5 23.5t-19.5 25.5v-589h-280l6 360v879q-2 78 -3 140t-5 140zM393 530q0 -221 131 -297q16 -10 46 -21q25 -9 59 -9h12q14 0 55 7t84 46q33 27 52.5 65.5t30.5 78.5t15.5 79t4.5 68q0 31 -5.5 71.5t-18.5 81.5t-38.5 78t-66.5 60q-35 16 -63 20 t-38 4q-23 0 -43 -4t-41 -10q-78 -29 -127 -109t-49 -209z" />
<glyph unicode="q" d="M59 543q0 86 20.5 188.5t82.5 188.5q20 29 37.5 45t27.5 26q23 20 44.5 33.5t31.5 17.5q68 35 126 42.5t81 7.5q96 0 164.5 -30t105.5 -65q20 -16 34.5 -34.5t37.5 -55.5v166h264v-1519h-276v614q-10 -20 -15.5 -30.5t-13.5 -20.5q-43 -59 -116.5 -97t-186.5 -38 q-61 0 -107.5 11t-70.5 21q-119 53 -195 186.5t-76 342.5zM350 535q0 -51 6 -87t13 -59q6 -23 20 -54.5t41 -61t67 -51t97 -21.5q72 0 113 26.5t65 61.5q27 35 41 74.5t20.5 74.5t7.5 60.5t1 31.5q0 2 -1 34t-11.5 77t-35 94t-71.5 84q-33 23 -68.5 33t-68.5 10 q-39 0 -82 -16q-53 -20 -83 -59t-46.5 -84.5t-20.5 -90.5t-4 -77z" />
<glyph unicode="r" horiz-adv-x="768" d="M111 1073h262v-258q10 41 18 62.5t19 42.5q47 88 119.5 127.5t146.5 39.5q18 0 37.5 -2t38.5 -6v-260q-12 4 -33 9.5t-51 5.5q-12 0 -44 -3.5t-71 -19.5t-76 -52t-57 -102q-10 -25 -14.5 -51t-8.5 -76q-2 -31 -2 -55v-55v-420h-278v795q0 78 -1 139t-5 139z" />
<glyph unicode="s" horiz-adv-x="854" d="M43 760q0 53 19.5 107.5t72.5 107.5q47 45 103.5 68.5t107.5 33.5t87 11.5t44 1.5q76 0 141.5 -12.5t141.5 -28.5l-19 -205q-63 18 -115 30q-45 11 -97 11h-17q-86 0 -139.5 -30t-53.5 -85q0 -12 6.5 -27.5t18.5 -25.5q23 -18 57.5 -31.5t85.5 -30.5q53 -16 88 -28.5 t58 -22.5q66 -31 101.5 -73t52 -83.5t19.5 -75.5t3 -46q0 -47 -13.5 -98.5t-50.5 -98.5q-25 -31 -51 -53.5t-51 -35.5t-44 -21.5t-28 -10.5q-63 -23 -123.5 -24.5t-78.5 -1.5q-45 0 -83 3t-74 9t-74 15t-83 20l15 233q37 -16 105.5 -42.5t162.5 -26.5q86 0 138 30.5t52 83.5 q0 27 -13 45.5t-33.5 31.5t-43 22.5t-41.5 15.5q-41 14 -78.5 27.5t-73.5 29t-68 36t-60 52.5q-29 31 -51.5 77t-22.5 116z" />
<glyph unicode="t" horiz-adv-x="768" d="M2 864v209h207v215l268 86v-301h252v-209h-252v-471q4 -78 38 -128t126 -50q35 0 60.5 6t37.5 10l6 -219q-66 -16 -105.5 -22t-72.5 -6q-90 0 -152.5 22.5t-99.5 54.5q-41 35 -66.5 90.5t-35.5 141.5q-4 41 -4 72v49v450h-207z" />
<glyph unicode="u" d="M102 479v594h279v-541q0 -45 2 -89t12.5 -84t32 -73.5t59.5 -54.5q33 -18 62 -21t39 -3q59 0 100 20.5t64 44.5q23 27 34 52.5t15 31.5q20 53 25 102.5t5 102.5v512h277v-711q4 -100 6 -181t6 -181h-260l-8 168q-12 -20 -28.5 -43t-57.5 -55q-41 -33 -106.5 -60.5 t-163.5 -27.5h-12q-102 0 -168 32q-70 34 -113 80q-37 41 -57.5 91.5t-30 101.5t-11.5 101t-2 91z" />
<glyph unicode="v" horiz-adv-x="1110" d="M-2 1073h303l166 -481q14 -39 23.5 -69.5t21.5 -69.5q12 -37 20.5 -66t16.5 -65q8 -31 12 -55.5t10 -55.5q14 74 27.5 133t36.5 133q10 33 18.5 59.5t18.5 59.5l155 477h281l-395 -1073h-314z" />
<glyph unicode="w" horiz-adv-x="1835" d="M4 1073h301l164 -534q14 -53 25.5 -94.5t23.5 -94.5q8 -33 13.5 -58.5t13.5 -60.5q8 55 16 101.5t19.5 90.5t22.5 89t26 98l133 463h328l155 -522q14 -47 25.5 -86t23.5 -86q10 -39 17.5 -69.5t17.5 -69.5q6 33 10 58.5t11 57.5q14 70 29.5 123t31.5 121l135 473h273 l-338 -1073h-322l-158 508q-20 68 -33.5 117t-22.5 87t-15 70.5t-12 69.5q-6 -43 -12.5 -78t-16.5 -76t-18.5 -70.5t-18.5 -68.5l-164 -559h-321z" />
<glyph unicode="x" horiz-adv-x="1110" d="M-12 0l370 559l-338 514h328l215 -358l213 358h291l-324 -514l367 -559h-334l-246 408l-235 -408h-307z" />
<glyph unicode="y" horiz-adv-x="1110" d="M-2 1073h303l164 -487q14 -49 27.5 -93t25.5 -87.5t24.5 -87.5t26.5 -93q23 92 45.5 166t51.5 164l163 518h283l-410 -1100q-41 -113 -75.5 -188.5t-79.5 -122.5q-25 -29 -48.5 -46t-31.5 -22q-53 -31 -109.5 -42t-107.5 -11q-35 0 -75 5t-109 22l20 209 q35 -10 59.5 -15.5t57.5 -5.5q57 0 95 20.5t61.5 50.5t37 60.5t19.5 51.5z" />
<glyph unicode="z" horiz-adv-x="980" d="M43 0v215l543 643h-523v215h846v-227l-536 -637q59 4 104 5t103 1h354v-215h-891z" />
<glyph unicode="{" horiz-adv-x="724" d="M55 500v118q47 12 71 30t42 46q23 39 30 87t7 128v269q0 53 2 80.5t6 56.5q2 8 6 35.5t19.5 61.5t45 66.5t81.5 55.5q53 23 137 27t207 6v-131q-37 -10 -77 -23.5t-75 -50.5q-37 -41 -48 -93t-11 -143v-102q0 -135 -5.5 -221t-43.5 -148q-4 -6 -16.5 -21.5t-29.5 -29.5 q-16 -12 -40.5 -23.5t-61.5 -21.5q49 -16 91 -39.5t71 -83.5q23 -47 29 -109.5t6 -164.5v-166q0 -90 11 -143.5t48 -92.5q35 -37 76 -50t76 -23v-133q-127 2 -209 8t-138 28q-35 14 -57 35t-33 33q-20 23 -29.5 45.5t-13.5 28.5q-16 47 -20 106.5t-4 106.5v266 q0 84 -8.5 134t-36.5 91q-18 23 -40 38t-65 26z" />
<glyph unicode="|" horiz-adv-x="468" d="M129 -512v2044h211v-2044h-211z" />
<glyph unicode="}" horiz-adv-x="724" d="M16 -313q29 6 58 14q14 6 34.5 15.5t42 26.5t39 44t27.5 66q4 18 6 42.5t3 47t1 39.5v14v98q0 170 6 242q4 37 12.5 60.5t16.5 39.5q6 10 19.5 33t42.5 45q25 18 51 27.5t49 17.5q-72 23 -104.5 49.5t-53.5 63.5q-27 53 -33 115.5t-6 168.5v170q0 41 -2 85t-16 84t-46 73 t-91 53q-16 4 -27.5 7.5t-28.5 7.5v131q123 -2 206 -6.5t136 -26.5q29 -12 49.5 -27.5t30.5 -25.5q31 -31 43.5 -58.5t16.5 -38.5q16 -47 19 -103t3 -103v-269q0 -84 7.5 -132t33.5 -89q16 -25 31 -35q18 -14 40.5 -22t39.5 -13v-118q-35 -8 -55.5 -19.5t-34.5 -25.5 q-4 -6 -8.5 -10.5l-6.5 -6.5q-29 -41 -38 -91t-9 -136v-266q0 -109 -14 -175.5t-55 -115.5q-12 -14 -35 -32.5t-56 -33.5q-35 -12 -79.5 -19t-93 -10t-93.5 -4t-78 -1v133z" />
<glyph unicode="~" horiz-adv-x="1492" d="M231 604q18 27 45 58.5t64 59.5t83 46t105 18q23 0 44.5 -3t46 -10t55.5 -19.5t74 -32.5l69 -33q39 -16 76 -29.5t76 -13.5q37 0 68.5 16.5t58 38t44 42t27.5 30.5l95 -182l-46 -46t-65 -53.5t-83 -45t-101 -21.5q-59 -2 -108.5 17.5t-108.5 47.5l-60 29q-41 20 -79 33.5 t-79 13.5q-35 0 -60.5 -10t-49 -28.5t-45 -44t-47.5 -56.5z" />
<glyph unicode="&#xa1;" horiz-adv-x="555" d="M70 0l51 1028h231l41 -1028h-323zM96 1176v270h285v-270h-285z" />
<glyph unicode="&#xa2;" horiz-adv-x="901" d="M59 543q0 113 28 197.5t73 146t104.5 102.5t120.5 64q115 41 231 37q14 0 16.5 1t20.5 -4l49 158h117l-53 -172l14 -4q4 0 27.5 -6t28.5 -8l-19 -224q-31 16 -56.5 23.5t-58.5 11.5l-194 -630q49 -25 93 -28t58 -3q55 0 95.5 10t93.5 39l18 -234q-35 -10 -103.5 -25 t-158.5 -15q-61 0 -101 7t-67 13l-57 -186h-117l70 227q-29 16 -50.5 29.5t-48.5 35.5q-53 47 -85.5 102.5t-53 113t-28 114t-7.5 107.5zM348 549q0 -43 9.5 -98.5t33.5 -98.5q6 -10 12.5 -19t12.5 -20l168 549q-31 -8 -49.5 -14t-32.5 -14q-61 -33 -107.5 -102.5 t-46.5 -182.5z" />
<glyph unicode="&#xa3;" horiz-adv-x="1024" d="M35 0v217h180v475h-158v154h158q0 49 2 109.5t11.5 122t31 122t59.5 109.5q31 37 67 62.5t68.5 40.5t58.5 23.5t32 10.5q70 18 125 21t80 3q82 -2 143 -13t92 -17l-10 -236q-51 16 -92 24.5t-92 8.5q-104 0 -161 -37t-83.5 -87t-31.5 -101t-5 -80v-86h309v-154h-309v-475 h471v-217h-946z" />
<glyph unicode="&#xa4;" horiz-adv-x="1366" d="M51 221l162 160q-35 51 -65.5 125t-30.5 188q0 61 13 129t46 129q10 16 17.5 27.5t17.5 28.5l-158 159l158 158l158 -160q14 10 24 17.5t27 15.5q43 23 85 36t77.5 19.5t62.5 8.5t39 2t40 -2t63.5 -8.5t77.5 -19.5t85 -38l24.5 -14t22.5 -15l158 158l160 -158l-162 -159 q20 -29 37 -60q23 -41 35 -81t17 -73.5t6 -59t1 -38.5q0 -90 -19.5 -153.5t-37.5 -98.5q-12 -23 -18.5 -33t-22.5 -32l164 -162l-160 -158l-160 164q-49 -33 -124.5 -64.5t-186.5 -31.5q-90 0 -152.5 20.5t-99.5 38.5q-18 10 -32.5 18.5t-30.5 18.5l-160 -160zM324 694 q0 -76 21.5 -129t43.5 -84q39 -51 110.5 -99t184.5 -50q12 0 42 2t69 14t82 39t84 74q25 31 39 59.5t18 38.5q16 45 20 83t4 54q0 68 -24 133q-16 47 -42 81t-46 51q-35 33 -96.5 65.5t-151.5 32.5q-57 0 -100 -15.5t-66 -25.5q-72 -37 -110.5 -87t-57 -97.5t-21.5 -86 t-3 -53.5z" />
<glyph unicode="&#xa5;" horiz-adv-x="1323" d="M-12 1446h338q35 -59 62.5 -107.5t62.5 -107.5q33 -57 59.5 -102.5t56.5 -102.5q8 -16 14.5 -26.5t14.5 -26.5l16 -33q16 -31 29.5 -56.5t30.5 -56.5q14 27 25.5 47.5t23.5 47.5l6 12q10 16 19.5 33.5t19.5 33.5l254 445h313l-407 -670h237v-162h-336l-16 -26v-107h352 v-162h-352v-319h-293v319h-342v162h342v99l-20 34h-322v162h221z" />
<glyph unicode="&#xa6;" horiz-adv-x="468" d="M129 389h211v-780h-211v780zM129 631v780h211v-780h-211z" />
<glyph unicode="&#xa7;" horiz-adv-x="1024" d="M80 602q0 66 23.5 114t46.5 75q20 23 36.5 37t36.5 30q-27 23 -40 33t-25 24q-27 29 -42.5 60t-22.5 58.5t-8 48t-1 26.5q-4 70 16.5 119t38.5 78q55 80 156.5 122.5t259.5 40.5q45 0 81 -3t71.5 -8t71.5 -13t81 -17l-18 -225q-33 12 -112 35t-173 23q-141 0 -197 -68 q-18 -23 -21 -43.5t-3 -28.5q0 -23 8 -43t31 -43q35 -33 81 -52t81 -32q76 -27 138 -49t110.5 -49t83 -61.5t59.5 -85.5q14 -29 20 -61t6 -60q0 -59 -15 -100.5t-32 -65.5q-18 -27 -30.5 -39t-24.5 -23q-12 -10 -23.5 -17t-23.5 -15q27 -20 39 -29.5t24 -24.5 q29 -29 44.5 -59.5t21.5 -58t7 -48t1 -26.5q0 -55 -18.5 -109.5t-52 -100.5t-84 -83t-111.5 -57q-31 -10 -62.5 -16.5t-59.5 -9.5t-48 -3h-27q-53 0 -97 4t-87 12.5t-88 19.5t-96 23l10 236q68 -29 114 -43t80.5 -22.5t65.5 -9.5t70 -1q20 0 47.5 1t55.5 7t54.5 18.5 t46.5 35.5q23 25 26 48t3 29q0 23 -9 47.5t-34 47.5q-16 12 -32.5 21t-18.5 9q-66 33 -123 51.5t-125 47.5q-117 49 -189.5 126.5t-72.5 194.5zM287 649q0 -10 7 -45t48 -69q18 -14 46 -28.5t57.5 -27t57 -23t46.5 -16.5q35 -12 60.5 -22t60.5 -25q23 23 47 55.5t24 83.5 q0 8 -7 46t-46 73q-29 23 -84 44.5t-129 49.5q-35 14 -60.5 25t-58.5 23q-8 -8 -15 -16.5t-13 -16.5q-10 -14 -26.5 -44t-14.5 -67z" />
<glyph unicode="&#xa8;" horiz-adv-x="555" d="M-201 1233v242h254v-242h-254zM162 1233v242h262v-242h-262z" />
<glyph unicode="&#xa9;" horiz-adv-x="1705" d="M125 723q0 68 12.5 142.5t45 149.5t86 146.5t132.5 136.5q49 39 92.5 61.5t59.5 29.5q49 23 96 35t87 18t70 8t46 2q20 0 76.5 -3t132.5 -24.5t163 -69.5t169 -136q43 -47 72.5 -94.5t48 -87.5t28.5 -69.5t14 -43.5q8 -27 17.5 -80t9.5 -125q-2 -82 -20.5 -163 t-53.5 -155q-8 -16 -24.5 -45.5t-43 -66.5t-65.5 -78t-90 -78q-29 -23 -73 -46.5t-99 -45t-120.5 -34.5t-141.5 -13q-78 0 -163 18.5t-168 60.5t-158.5 107.5t-133.5 159.5q-39 61 -59 121.5t-30.5 113t-12.5 91.5t-2 57zM190 723q0 -139 52.5 -260t141.5 -211t210 -141.5 t258 -51.5t258 51.5t211 140.5t142.5 210t52.5 260q2 82 -17.5 162t-56.5 151q-23 45 -44.5 74t-37.5 47q-57 68 -120.5 112t-129.5 71.5t-131.5 37.5t-126.5 10q-88 0 -162 -19t-134 -50t-108.5 -69t-85.5 -77q-39 -43 -65.5 -85t-43.5 -78.5t-26.5 -64.5t-11.5 -40 q-12 -41 -18.5 -90t-6.5 -90zM371 729q0 106 36.5 196.5t102 157t156 104.5t198.5 38q16 0 58.5 -2t97.5 -18.5t119.5 -53.5t124.5 -107l-148 -139q-63 70 -122.5 95.5t-129.5 25.5q-131 -4 -207.5 -87t-78.5 -210q-2 -41 5 -70.5t13 -44.5q18 -53 51 -89t71 -57.5t80 -30.5 t81 -9q12 0 36.5 2t56.5 13.5t69.5 34t74.5 65.5l148 -133q-18 -23 -43 -45.5t-66 -51.5t-110.5 -55.5t-167.5 -28.5q-113 -2 -206 35t-161 103.5t-103.5 158.5t-35.5 203z" />
<glyph unicode="&#xaa;" horiz-adv-x="2048" d="M301 0h1446v1446h-1446v-1446zM508 176v1094h1032v-1094h-1032z" />
<glyph unicode="&#xab;" horiz-adv-x="1110" d="M70 555l241 424h267l-226 -424l226 -428h-259zM545 555l241 424h267l-226 -424l226 -428h-258z" />
<glyph unicode="&#xac;" horiz-adv-x="1366" d="M0 496v211h1366v-707h-211v496h-1155z" />
<glyph unicode="&#xad;" horiz-adv-x="681" d="M72 440v230h540v-230h-540z" />
<glyph unicode="&#xae;" horiz-adv-x="1705" d="M125 723q0 68 12.5 142.5t45 149.5t86 146.5t132.5 136.5q49 39 92.5 61.5t59.5 29.5q49 23 96 35t87 18t70 8t46 2q131 0 238.5 -37t189.5 -96t140.5 -132t90.5 -143q20 -43 46 -127.5t26 -197.5q-2 -82 -19.5 -163t-54.5 -155q-14 -29 -54 -94t-118 -133 q-113 -98 -241.5 -139t-243.5 -41q-78 0 -163 18.5t-168 60.5t-158.5 107.5t-133.5 159.5q-39 61 -59 121.5t-30.5 113t-12.5 91.5t-2 57zM190 723q0 -139 52.5 -260t141.5 -211t210 -141.5t258 -51.5t258 51.5t211 140.5t142.5 210t54.5 260q0 166 -76 313q-23 45 -44.5 74 t-37.5 47q-57 68 -120.5 112t-129.5 71.5t-131.5 37.5t-126.5 10q-88 0 -162 -19t-134 -50t-108.5 -69t-85.5 -77q-39 -43 -65.5 -85t-43.5 -78.5t-26.5 -64.5t-11.5 -40q-12 -41 -18.5 -90t-6.5 -90zM528 266v928h318q59 -2 124.5 -4t123.5 -31q29 -14 44 -28.5t25 -24.5 q43 -51 50.5 -99.5t7.5 -64.5q-6 -150 -162 -205q-4 -2 -8 -2t-9 -4q27 -12 47.5 -27.5t38.5 -46.5q23 -37 29 -84t12 -84q0 -6 4.5 -27.5t10.5 -50t16 -62.5t25 -62q4 -6 6 -10.5t6 -10.5h-223q-35 70 -43 152t-25 149q-14 53 -41 72q-2 2 -10 6q-20 14 -49 18.5t-76 4.5 h-47v-402h-195zM723 823h135q29 0 70 4t67 31q8 8 13.5 19.5t7.5 11.5q6 16 8 29.5t2 19.5t-3 22.5t-13 34.5q-20 35 -53 41t-58 8h-176v-221z" />
<glyph unicode="&#xaf;" horiz-adv-x="1366" d="M88 0v287h291v-287h-291zM494 0l501 1446h228l-502 -1446h-227zM989 0v287h291v-287h-291z" />
<glyph unicode="&#xb0;" horiz-adv-x="724" d="M10 1192q0 74 28 138.5t76 112.5t111 75.5t137 27.5q94 0 177 -47q29 -16 60.5 -44t57 -65.5t42 -87t16.5 -110.5q0 -72 -28 -135.5t-75 -111.5t-111.5 -76.5t-138.5 -28.5t-138 28.5t-111 76.5t-75 111.5t-28 135.5zM215 1192q0 -59 44 -103.5t103 -44.5 q61 0 104.5 44.5t43.5 103.5q0 61 -44.5 103t-103.5 42q-41 0 -73 -18q-39 -23 -56.5 -58.5t-17.5 -68.5z" />
<glyph unicode="&#xb1;" horiz-adv-x="1366" d="M86 0v211h1194v-211h-1194zM86 766v211h494v461h211v-461h489v-211h-489v-463h-211v463h-494z" />
<glyph unicode="&#xb2;" horiz-adv-x="724" d="M49 541h608v143h-383q41 39 91.5 88.5t98.5 102.5t88 109.5t58 109.5q23 57 23 117q0 59 -20.5 106t-57.5 80t-87 50.5t-108 17.5q-53 0 -106 -7.5t-102 -23.5q-23 -8 -42.5 -16.5t-41.5 -16.5l16 -160q49 29 100.5 51.5t110.5 22.5t101 -30.5t42 -94.5q0 -31 -10 -60.5 t-27 -56.5q-27 -45 -70.5 -96t-93 -102t-99.5 -98.5t-89 -83.5v-152z" />
<glyph unicode="&#xb3;" horiz-adv-x="724" d="M51 551q55 -12 109.5 -20.5t111.5 -8.5q61 0 127 12.5t120 42t88 79.5t34 126q0 92 -51 155.5t-148 68.5q86 29 137.5 75.5t51.5 143.5q0 68 -28 113.5t-72 72.5t-101 38t-115 11q-125 0 -247 -41l12 -145q49 20 100 33.5t105 13.5q27 0 55.5 -5t51 -18.5t36.5 -36 t14 -55.5q0 -45 -23.5 -71.5t-58 -40t-75.5 -17.5t-74 -4q-12 0 -24.5 -1t-24.5 1v-145h88t93 -10.5t75 -38t31 -82.5q0 -37 -16.5 -62.5t-43.5 -42t-59.5 -23.5t-63.5 -7q-53 0 -105 11t-102 32z" />
<glyph unicode="&#xb4;" horiz-adv-x="555" d="M8 1210l174 299h285l-295 -299h-164z" />
<glyph unicode="&#xb6;" horiz-adv-x="1366" d="M174 1018q0 92 25.5 160.5t65.5 118t88 80t93 44.5q53 16 93.5 20.5t93.5 4.5h489v-135h-71v-1653h-144v1653h-270v-1653h-143v969q-16 4 -53.5 12t-80.5 33q-72 41 -109.5 96t-55 107.5t-19.5 92.5t-2 50z" />
<glyph unicode="&#xb7;" horiz-adv-x="382" d="M33 596q2 72 42 107.5t72 46.5q12 8 46 8q41 0 75 -21q27 -14 55.5 -49t26.5 -94q-2 -57 -29.5 -90t-54.5 -49q-27 -14 -48.5 -16.5t-29.5 -2.5q-43 0 -82 23q-29 18 -43 38.5t-21 41t-8 36t-1 21.5z" />
<glyph unicode="&#xb9;" horiz-adv-x="724" d="M80 1243l92 -119l156 129v-712h184v909h-160z" />
<glyph unicode="&#xba;" horiz-adv-x="2048" d="M301 0h1446v1446h-1446v-1446zM508 176v1094h1032v-1094h-1032zM596 342q2 -10 8 -12t6 -11q0 -10 -5 -21t-5 -15q0 -23 13.5 -37.5t15.5 -18.5q6 -8 8 -13t16 -5q8 0 13 2h16q10 4 19.5 5t19.5 5h2q10 0 14 10q70 102 139.5 200.5t145.5 197.5q4 4 6 8t6 8 q16 -37 44 -71.5t50 -67.5q47 -59 72 -90t35 -31q18 0 33.5 15.5t15.5 13.5q0 4 -5 11t-5 11q4 10 18.5 16.5t14.5 10.5v6q0 4 6 5t16 15l-57 113q-16 33 -28.5 57.5t-29.5 59.5l-36 67q-10 10 -15 19q4 8 8 12q41 49 83 97.5t85 93.5q29 35 58.5 66.5t64.5 70.5l2 4 q2 0 2 4q0 12 -13 22.5t-13 14.5q-2 2 -3 8t-7 6q-8 0 -20.5 -14t-16.5 -14q-12 0 -19.5 13t-30.5 13q-6 0 -8 -2l-125 -123l-127 -137l-77 141q-16 27 -30.5 58.5t-33.5 31.5q-14 0 -20.5 -11t-10.5 -11t-5 1t-3 1h-4q-2 0 -5 -4t-7 -4q-2 0 -9.5 6t-17.5 6 q-8 4 -19.5 -11.5t-15.5 -21.5q-6 -6 -6 -8t4 -6l82 -219q10 -25 21.5 -49.5t21.5 -46.5l-8 -11q-47 -51 -93 -102t-90 -104.5t-84 -109.5t-73 -118q-2 -2 -3 -4z" />
<glyph unicode="&#xbb;" horiz-adv-x="1110" d="M55 127l226 424l-226 428h258l250 -428l-241 -424h-267zM532 127l226 424l-226 428h259l249 -428l-241 -424h-267z" />
<glyph unicode="&#xbc;" horiz-adv-x="1792" d="M80 1243l92 -119l156 129v-712h184v909h-160zM553 0l565 1446h127l-565 -1446h-127zM1055 184h385v-184h180v184h102v140h-102v585h-231l-334 -577v-148zM1221 324l227 426l-4 -426h-223z" />
<glyph unicode="&#xbd;" horiz-adv-x="1792" d="M80 1243l92 -119l156 129v-712h184v909h-160zM504 0l565 1446h127l-565 -1446h-127zM1098 0h608v143h-383q41 39 91 88.5t98.5 102.5t88 109.5t58.5 109.5q23 57 22 117q0 59 -20.5 106t-57 80t-87 50.5t-107.5 17.5q-53 0 -106.5 -7.5t-102.5 -23.5q-23 -8 -42 -16.5 t-42 -16.5l17 -160q49 29 100 51.5t110 22.5t101.5 -30.5t42.5 -94.5q0 -31 -10.5 -60.5t-26.5 -56.5q-27 -45 -71 -96t-93 -102t-99 -98.5t-89 -83.5v-152z" />
<glyph unicode="&#xbe;" horiz-adv-x="1792" d="M66 551q55 -12 109 -20.5t112 -8.5q61 0 126.5 12.5t120 42t88 79.5t33.5 126q0 92 -51 155.5t-147 68.5q86 29 137 75.5t51 143.5q0 68 -27.5 113.5t-71.5 72.5t-101.5 38t-114.5 11q-125 0 -248 -41l12 -145q49 20 100.5 33.5t104.5 13.5q27 0 55.5 -5t51 -18.5t37 -36 t14.5 -55.5q0 -45 -23.5 -71.5t-58.5 -40t-76 -17.5t-74 -4q-12 0 -24.5 -1t-24.5 1v-145h88t93 -10.5t75 -38t31 -82.5q0 -37 -16.5 -62.5t-43 -42t-59.5 -23.5t-63 -7q-53 0 -105.5 11t-101.5 32zM578 -2l565 1446h127l-565 -1446h-127zM1055 184h385v-184h180v184h102 v140h-102v585h-231l-334 -577v-148zM1221 324l227 426l-4 -426h-223z" />
<glyph unicode="&#xbf;" horiz-adv-x="1024" d="M43 344q4 100 39 162.5t72 107.5q23 29 42 49.5t42 47.5q57 63 80.5 94t41.5 65q23 43 27 81t6 81h252q-2 -16 -3 -29.5t-1 -29.5q-4 -63 -9 -94t-20 -64q-4 -12 -12 -30.5t-29 -47.5l-31.5 -40.5t-47.5 -59.5l-21.5 -21.5t-34 -38t-37 -49t-30.5 -53.5 q-16 -35 -19.5 -62.5t-3.5 -39.5q4 -78 63.5 -126t180.5 -46q111 2 186.5 30.5t122.5 49.5l23 -238q-57 -16 -105.5 -28.5t-95.5 -20.5t-96.5 -12.5t-106.5 -4.5q-70 0 -150.5 12.5t-150.5 53.5q-68 39 -102.5 86t-51 89t-18.5 76t-2 50zM373 1176v270h286v-270h-286z" />
<glyph unicode="&#xc0;" horiz-adv-x="1492" d="M6 0l572 1446h327l576 -1446h-320l-125 330h-600l-123 -330h-307zM395 1833h301l164 -281h-178zM526 563h420l-115 328q-29 84 -49 152.5t-45 154.5q-14 -53 -23 -88t-20.5 -66.5t-24 -67.5t-32.5 -87z" />
<glyph unicode="&#xc1;" horiz-adv-x="1492" d="M6 0l572 1446h327l576 -1446h-320l-125 330h-600l-123 -330h-307zM526 563h420l-115 328q-29 84 -49 152.5t-45 154.5q-14 -53 -23 -88t-20.5 -66.5t-24 -67.5t-32.5 -87zM633 1552l166 281h301l-289 -281h-178z" />
<glyph unicode="&#xc2;" horiz-adv-x="1492" d="M6 0l572 1446h327l576 -1446h-320l-125 330h-600l-123 -330h-307zM402 1552l225 281h241l226 -281h-215l-138 166l-135 -166h-204zM526 563h420l-115 328q-29 84 -49 152.5t-45 154.5q-14 -53 -23 -88t-20.5 -66.5t-24 -67.5t-32.5 -87z" />
<glyph unicode="&#xc3;" horiz-adv-x="1492" d="M6 0l572 1446h327l576 -1446h-320l-125 330h-600l-123 -330h-307zM348 1563q2 4 7 26.5t16.5 53t32 63.5t51.5 57q12 10 21 15.5t22 11.5q35 16 62.5 20.5t39.5 4.5q33 2 80 -8.5t121 -43.5q51 -23 81.5 -31t53.5 -8q4 0 19.5 1t31.5 12q25 16 36 39.5t17 42.5h115 q-2 -12 -12.5 -54.5t-37 -87.5t-73.5 -79.5t-123 -32.5q-59 2 -105 20.5t-108 40.5q-10 4 -45 16.5t-69 12.5q-10 0 -25.5 -2t-33 -11.5t-34 -28t-26.5 -50.5h-115zM526 563h420l-115 328q-29 84 -49 152.5t-45 154.5q-14 -53 -23 -88t-20.5 -66.5t-24 -67.5t-32.5 -87z" />
<glyph unicode="&#xc4;" horiz-adv-x="1492" d="M6 0l572 1446h327l576 -1446h-320l-125 330h-600l-123 -330h-307zM385 1579v242h262v-242h-262zM526 563h420l-115 328q-29 84 -49 152.5t-45 154.5q-14 -53 -23 -88t-20.5 -66.5t-24 -67.5t-32.5 -87zM821 1579v242h263v-242h-263z" />
<glyph unicode="&#xc5;" horiz-adv-x="1492" d="M6 0l572 1446h327l576 -1446h-320l-125 330h-600l-123 -330h-307zM514 1720q0 45 16.5 87t47.5 71q66 66 159 66q45 2 87 -13.5t73 -44.5q31 -31 47.5 -74t18.5 -90q0 -53 -17.5 -91t-36.5 -56q-25 -29 -52.5 -43t-52 -20.5t-42 -7.5t-23.5 -1q-45 0 -87 15.5t-72 44.5 q-66 65 -66 157zM526 563h420l-115 328q-29 84 -49 152.5t-45 154.5q-14 -53 -23 -88t-20.5 -66.5t-24 -67.5t-32.5 -87zM625 1720q2 -47 33.5 -78.5t78.5 -31.5q23 0 43.5 7t36.5 23q33 33 33 80q0 49 -33 81t-80 32q-49 0 -80.5 -33t-31.5 -80z" />
<glyph unicode="&#xc6;" horiz-adv-x="1878" d="M-33 0l791 1446h1028v-246h-559l28 -342h490v-240h-469l33 -376h493v-242h-760l-26 332h-561l-179 -332h-309zM580 565h413l-55 674z" />
<glyph unicode="&#xc7;" d="M59 723q0 100 16.5 183t45.5 150.5t66.5 121t80.5 94.5q35 35 63.5 54.5t45.5 29.5q29 18 80 41.5t123 42.5q39 10 99 19t150 9q127 -2 208 -19t137 -38l-23 -248q-16 8 -29.5 14.5t-31.5 14.5q-37 14 -75 22.5t-70 12.5t-56.5 5t-34.5 1q-57 0 -118.5 -10.5t-119 -39 t-108.5 -77.5t-86 -125q-16 -33 -32.5 -95.5t-14.5 -148.5q0 -47 9 -103t31.5 -113.5t59.5 -112t96 -97.5q27 -20 51.5 -31.5t30.5 -15.5q35 -16 84 -28.5t127 -12.5q57 -2 122 7.5t122 29.5q18 6 33.5 12.5t32.5 14.5l16 -258q-49 -12 -90 -21.5t-81 -15.5t-81 -9t-90 -3 h-33l-84 -134q29 6 44.5 9.5t43.5 3.5q49 0 82 -12.5t53.5 -33t28.5 -47t8 -53.5q2 -41 -12 -68.5t-29 -43.5q-47 -51 -105.5 -65.5t-105.5 -14.5q-57 0 -102 9t-66 15q-14 4 -24 8.5t-25 8.5l41 90q41 -16 70 -24.5t69 -8.5q35 0 64 7t45 36q10 12 10 35q2 23 -13 43 t-42 27q-8 4 -16 4h-17q-31 0 -58.5 -7.5t-37.5 -9.5l-33 53l119 179q-10 2 -18 2t-19 2q-25 2 -49 8q-16 2 -52 10t-83 24.5t-102.5 45t-106.5 72.5q-90 74 -137 168t-68.5 180t-25 149.5t-3.5 75.5z" />
<glyph unicode="&#xc8;" horiz-adv-x="1067" d="M131 0v1446h858v-244h-561v-344h514v-237h-514v-377h567v-244h-864zM180 1833h301l164 -281h-178z" />
<glyph unicode="&#xc9;" horiz-adv-x="1067" d="M131 0v1446h858v-244h-561v-344h514v-237h-514v-377h567v-244h-864zM420 1552l166 281h301l-289 -281h-178z" />
<glyph unicode="&#xca;" horiz-adv-x="1067" d="M131 0v1446h858v-244h-561v-344h514v-237h-514v-377h567v-244h-864zM195 1552l225 281h241l226 -281h-215l-138 166l-135 -166h-204z" />
<glyph unicode="&#xcb;" horiz-adv-x="1067" d="M131 0v1446h858v-244h-561v-344h514v-237h-514v-377h567v-244h-864zM180 1579v242h262v-242h-262zM616 1579v242h263v-242h-263z" />
<glyph unicode="&#xcc;" horiz-adv-x="555" d="M-70 1833h301l164 -281h-178zM131 0v1446h293v-1446h-293z" />
<glyph unicode="&#xcd;" horiz-adv-x="555" d="M131 0v1446h293v-1446h-293zM160 1552l166 281h301l-289 -281h-178z" />
<glyph unicode="&#xce;" horiz-adv-x="555" d="M-65 1552l225 281h241l226 -281h-215l-138 166l-135 -166h-204zM131 0v1446h293v-1446h-293z" />
<glyph unicode="&#xcf;" horiz-adv-x="555" d="M-74 1579v242h262v-242h-262zM131 0v1446h293v-1446h-293zM362 1579v242h263v-242h-263z" />
<glyph unicode="&#xd1;" horiz-adv-x="1449" d="M131 0v1446h350l396 -725q23 -41 38 -75t37 -75q25 -49 44.5 -88t41.5 -88q10 -25 18.5 -44t18.5 -44q-6 57 -10 103.5t-6 105.5q-4 39 -4 70v69l-8 791h270v-1446h-344l-438 813q-31 55 -51.5 92t-36 69t-31 68.5t-37.5 92.5q8 -92 11 -166t7 -168l6 -801h-272z M321 1563q2 4 7 26.5t16.5 53t32 63.5t51.5 57q12 10 21 15.5t22 11.5q35 16 62.5 20.5t39.5 4.5q33 2 80 -8.5t121 -43.5q51 -23 81.5 -31t53.5 -8q4 0 19.5 1t31.5 12q25 16 36 39.5t17 42.5h115q-2 -12 -12.5 -54.5t-37 -87.5t-73.5 -79.5t-123 -32.5q-59 2 -105 20.5 t-108 40.5q-10 4 -45 16.5t-69 12.5q-10 0 -25.5 -2t-33 -11.5t-34 -28t-26.5 -50.5h-115z" />
<glyph unicode="&#xd2;" horiz-adv-x="1536" d="M63 713q0 18 1.5 70.5t14.5 125t44 154.5t90 158q8 10 13 16t14 14q63 70 133.5 113t133 65.5t109 30.5t62.5 10q27 4 47 5.5t47 1.5q10 2 19 2h20q59 0 118.5 -8.5t117.5 -26.5q127 -45 221 -135q55 -55 94 -125t63 -146q27 -76 38.5 -153.5t13.5 -155.5 q0 -160 -50 -313q-25 -72 -63.5 -139.5t-91.5 -120.5q-51 -53 -113.5 -90t-130.5 -60q-66 -23 -131.5 -30t-132.5 -5q-82 0 -133 8.5t-88 18.5q-182 49 -295 176t-156 301q-20 80 -23 145.5t-6 92.5zM371 717q0 -147 39 -249.5t96 -162.5q59 -63 131 -87.5t137 -24.5 q10 0 33.5 1t55.5 8t69 23.5t72 44.5q12 10 32.5 31t40.5 49q29 45 47.5 99.5t26.5 97.5q6 29 13 77t5 117q-4 131 -35.5 229.5t-70.5 149.5q-27 35 -48.5 52.5t-33.5 25.5q-33 23 -65.5 35t-61.5 17t-51 5h-29q-41 -2 -83 -10t-79 -26q-39 -20 -67.5 -45t-36.5 -35 q-57 -63 -97 -166t-40 -256zM420 1833h301l164 -281h-178z" />
<glyph unicode="&#xd3;" horiz-adv-x="1536" d="M63 713q0 18 1.5 70.5t14.5 125t44 154.5t90 158q8 10 13 16t14 14q63 70 133.5 113t133 65.5t109 30.5t62.5 10q27 4 47 5.5t47 1.5q10 2 19 2h20q59 0 118.5 -8.5t117.5 -26.5q127 -45 221 -135q55 -55 94 -125t63 -146q27 -76 38.5 -153.5t13.5 -155.5 q0 -160 -50 -313q-25 -72 -63.5 -139.5t-91.5 -120.5q-51 -53 -113.5 -90t-130.5 -60q-66 -23 -131.5 -30t-132.5 -5q-82 0 -133 8.5t-88 18.5q-182 49 -295 176t-156 301q-20 80 -23 145.5t-6 92.5zM371 717q0 -147 39 -249.5t96 -162.5q59 -63 131 -87.5t137 -24.5 q10 0 33.5 1t55.5 8t69 23.5t72 44.5q12 10 32.5 31t40.5 49q29 45 47.5 99.5t26.5 97.5q6 29 13 77t5 117q-4 131 -35.5 229.5t-70.5 149.5q-27 35 -48.5 52.5t-33.5 25.5q-33 23 -65.5 35t-61.5 17t-51 5h-29q-41 -2 -83 -10t-79 -26q-39 -20 -67.5 -45t-36.5 -35 q-57 -63 -97 -166t-40 -256zM649 1552l166 281h301l-289 -281h-178z" />
<glyph unicode="&#xd4;" horiz-adv-x="1536" d="M63 713q0 18 1.5 70.5t14.5 125t44 154.5t90 158q8 10 13 16t14 14q63 70 133.5 113t133 65.5t109 30.5t62.5 10q27 4 47 5.5t47 1.5q10 2 19 2h20q59 0 118.5 -8.5t117.5 -26.5q127 -45 221 -135q55 -55 94 -125t63 -146q27 -76 38.5 -153.5t13.5 -155.5 q0 -160 -50 -313q-25 -72 -63.5 -139.5t-91.5 -120.5q-51 -53 -113.5 -90t-130.5 -60q-66 -23 -131.5 -30t-132.5 -5q-82 0 -133 8.5t-88 18.5q-182 49 -295 176t-156 301q-20 80 -23 145.5t-6 92.5zM371 717q0 -147 39 -249.5t96 -162.5q59 -63 131 -87.5t137 -24.5 q10 0 33.5 1t55.5 8t69 23.5t72 44.5q12 10 32.5 31t40.5 49q29 45 47.5 99.5t26.5 97.5q6 29 13 77t5 117q-4 131 -35.5 229.5t-70.5 149.5q-27 35 -48.5 52.5t-33.5 25.5q-33 23 -65.5 35t-61.5 17t-51 5h-29q-41 -2 -83 -10t-79 -26q-39 -20 -67.5 -45t-36.5 -35 q-57 -63 -97 -166t-40 -256zM424 1552l225 281h241l226 -281h-215l-138 166l-135 -166h-204z" />
<glyph unicode="&#xd5;" horiz-adv-x="1536" d="M63 713q0 18 1.5 70.5t14.5 125t44 154.5t90 158q8 10 13 16t14 14q63 70 133.5 113t133 65.5t109 30.5t62.5 10q27 4 47 5.5t47 1.5q10 2 19 2h20q59 0 118.5 -8.5t117.5 -26.5q127 -45 221 -135q55 -55 94 -125t63 -146q27 -76 38.5 -153.5t13.5 -155.5 q0 -160 -50 -313q-25 -72 -63.5 -139.5t-91.5 -120.5q-51 -53 -113.5 -90t-130.5 -60q-66 -23 -131.5 -30t-132.5 -5q-82 0 -133 8.5t-88 18.5q-182 49 -295 176t-156 301q-20 80 -23 145.5t-6 92.5zM369 1563q2 4 7 26.5t16.5 53t32 63.5t51.5 57q12 10 21 15.5t22 11.5 q35 16 62.5 20.5t39.5 4.5q33 2 80 -8.5t121 -43.5q51 -23 81.5 -31t53.5 -8q4 0 19.5 1t31.5 12q25 16 36 39.5t17 42.5h115q-2 -12 -12.5 -54.5t-37 -87.5t-73.5 -79.5t-123 -32.5q-59 2 -105 20.5t-108 40.5q-10 4 -45 16.5t-69 12.5q-10 0 -25.5 -2t-33 -11.5t-34 -28 t-26.5 -50.5h-115zM371 717q0 -147 39 -249.5t96 -162.5q59 -63 131 -87.5t137 -24.5q10 0 33.5 1t55.5 8t69 23.5t72 44.5q12 10 32.5 31t40.5 49q29 45 47.5 99.5t26.5 97.5q6 29 13 77t5 117q-4 131 -35.5 229.5t-70.5 149.5q-27 35 -48.5 52.5t-33.5 25.5 q-33 23 -65.5 35t-61.5 17t-51 5h-29q-41 -2 -83 -10t-79 -26q-39 -20 -67.5 -45t-36.5 -35q-57 -63 -97 -166t-40 -256z" />
<glyph unicode="&#xd6;" horiz-adv-x="1536" d="M63 713q0 18 1.5 70.5t14.5 125t44 154.5t90 158q8 10 13 16t14 14q63 70 133.5 113t133 65.5t109 30.5t62.5 10q27 4 47 5.5t47 1.5q10 2 19 2h20q59 0 118.5 -8.5t117.5 -26.5q127 -45 221 -135q55 -55 94 -125t63 -146q27 -76 38.5 -153.5t13.5 -155.5 q0 -160 -50 -313q-25 -72 -63.5 -139.5t-91.5 -120.5q-51 -53 -113.5 -90t-130.5 -60q-66 -23 -131.5 -30t-132.5 -5q-82 0 -133 8.5t-88 18.5q-182 49 -295 176t-156 301q-20 80 -23 145.5t-6 92.5zM371 717q0 -147 39 -249.5t96 -162.5q59 -63 131 -87.5t137 -24.5 q10 0 33.5 1t55.5 8t69 23.5t72 44.5q12 10 32.5 31t40.5 49q29 45 47.5 99.5t26.5 97.5q6 29 13 77t5 117q-4 131 -35.5 229.5t-70.5 149.5q-27 35 -48.5 52.5t-33.5 25.5q-33 23 -65.5 35t-61.5 17t-51 5h-29q-41 -2 -83 -10t-79 -26q-39 -20 -67.5 -45t-36.5 -35 q-57 -63 -97 -166t-40 -256zM416 1579v242h262v-242h-262zM852 1579v242h263v-242h-263z" />
<glyph unicode="&#xd7;" horiz-adv-x="1366" d="M139 205l391 393l-391 393l152 152l391 -393l393 393l152 -152l-393 -393l393 -393l-152 -152l-393 393l-391 -393z" />
<glyph unicode="&#xd8;" horiz-adv-x="1536" d="M57 727q2 86 15.5 170t44.5 164q27 66 63.5 124t85.5 105q106 104 248 148q59 18 120.5 26.5t125.5 10.5q113 2 188.5 -16.5t122.5 -41.5q29 -14 56.5 -29.5t35.5 -19.5l115 145l104 -79l-112 -152q27 -29 47 -54.5t49 -78.5q37 -74 58.5 -140.5t30.5 -123t11 -99.5 t2 -69q0 -96 -14 -178t-38.5 -151t-56.5 -123t-65 -91q-43 -49 -90 -82t-89 -53.5t-74.5 -30.5t-47.5 -12q-37 -10 -73.5 -14.5t-68.5 -7.5t-56 -3h-35q-82 0 -179.5 13.5t-181.5 64.5q-12 10 -22 17.5t-25 17.5l-116 -152l-107 80l119 156q-29 35 -58.5 78t-60.5 114 q-41 92 -56.5 183.5t-15.5 183.5zM354 723q0 -121 20.5 -193.5t49.5 -128.5l586 764q-2 2 -15.5 14.5t-27.5 22.5q-29 20 -83.5 40t-127.5 20q-53 0 -88 -9.5t-58 -19.5q-82 -37 -131 -100.5t-76.5 -136t-38 -145.5t-10.5 -128zM510 291q8 -10 16.5 -20.5t30.5 -26.5 q29 -20 83 -41t126 -21q20 0 59 4t86 24.5t97.5 63.5t91.5 121q23 41 33 78t14 47q8 31 15 82t7 125q0 86 -11 142.5t-23 95.5q-4 10 -9.5 27.5t-9.5 27.5t-9 18.5t-9 18.5z" />
<glyph unicode="&#xd9;" horiz-adv-x="1409" d="M111 629v817h292v-768q0 -74 3.5 -132.5t12.5 -106.5t28.5 -87t54.5 -71q33 -31 86 -54.5t131 -21.5q6 0 24.5 1t42 5t51 15.5t54.5 29.5q43 33 67.5 74t37 83t14.5 84t2 76q2 16 2 31v31v811h278v-856v-72q0 -35 -4 -69q-6 -88 -37 -170q-35 -86 -100 -152 q-37 -37 -82 -64.5t-92 -44.5q-66 -25 -134.5 -33t-140.5 -8q-43 0 -95 4.5t-105 15.5t-104.5 30.5t-96.5 52.5q-20 14 -31.5 25.5l-21.5 21.5q-63 66 -88 137.5t-35 136.5q-8 59 -10 114.5t-4 113.5zM356 1833h301l164 -281h-178z" />
<glyph unicode="&#xda;" horiz-adv-x="1409" d="M111 629v817h292v-768q0 -74 3.5 -132.5t12.5 -106.5t28.5 -87t54.5 -71q33 -31 86 -54.5t131 -21.5q6 0 24.5 1t42 5t51 15.5t54.5 29.5q43 33 67.5 74t37 83t14.5 84t2 76q2 16 2 31v31v811h278v-856v-72q0 -35 -4 -69q-6 -88 -37 -170q-35 -86 -100 -152 q-37 -37 -82 -64.5t-92 -44.5q-66 -25 -134.5 -33t-140.5 -8q-43 0 -95 4.5t-105 15.5t-104.5 30.5t-96.5 52.5q-20 14 -31.5 25.5l-21.5 21.5q-63 66 -88 137.5t-35 136.5q-8 59 -10 114.5t-4 113.5zM586 1552l166 281h301l-289 -281h-178z" />
<glyph unicode="&#xdb;" horiz-adv-x="1409" d="M111 629v817h292v-768q0 -74 3.5 -132.5t12.5 -106.5t28.5 -87t54.5 -71q33 -31 86 -54.5t131 -21.5q6 0 24.5 1t42 5t51 15.5t54.5 29.5q43 33 67.5 74t37 83t14.5 84t2 76q2 16 2 31v31v811h278v-856v-72q0 -35 -4 -69q-6 -88 -37 -170q-35 -86 -100 -152 q-37 -37 -82 -64.5t-92 -44.5q-66 -25 -134.5 -33t-140.5 -8q-43 0 -95 4.5t-105 15.5t-104.5 30.5t-96.5 52.5q-20 14 -31.5 25.5l-21.5 21.5q-63 66 -88 137.5t-35 136.5q-8 59 -10 114.5t-4 113.5zM361 1552l225 281h241l226 -281h-215l-138 166l-135 -166h-204z" />
<glyph unicode="&#xdc;" horiz-adv-x="1409" d="M111 629v817h292v-768q0 -74 3.5 -132.5t12.5 -106.5t28.5 -87t54.5 -71q33 -31 86 -54.5t131 -21.5q6 0 24.5 1t42 5t51 15.5t54.5 29.5q43 33 67.5 74t37 83t14.5 84t2 76q2 16 2 31v31v811h278v-856v-72q0 -35 -4 -69q-6 -88 -37 -170q-35 -86 -100 -152 q-37 -37 -82 -64.5t-92 -44.5q-66 -25 -134.5 -33t-140.5 -8q-43 0 -95 4.5t-105 15.5t-104.5 30.5t-96.5 52.5q-20 14 -31.5 25.5l-21.5 21.5q-63 66 -88 137.5t-35 136.5q-8 59 -10 114.5t-4 113.5zM356 1579v242h262v-242h-262zM792 1579v242h263v-242h-263z" />
<glyph unicode="&#xdd;" horiz-adv-x="1323" d="M-12 1446h338l176 -318q25 -43 45 -77.5t45 -77.5q23 -41 40 -73t40 -73q20 41 37.5 74t40.5 74q23 43 43 77.5t45 75.5l182 318h313l-522 -858v-588h-293v580zM547 1552l166 281h301l-289 -281h-178z" />
<glyph unicode="&#xdf;" d="M115 0v922q0 39 1 86t4 94t10 93t22 85q16 49 37.5 82t37.5 53q45 51 98.5 83t107.5 50.5t108.5 24.5t101.5 6q59 0 97 -5t65 -11q76 -20 132 -58.5t94 -89.5t56.5 -112.5t18.5 -124.5q0 -104 -38 -170t-91 -103q-14 -10 -25.5 -16t-15.5 -10q-35 -18 -61.5 -26.5 t-61.5 -18.5q29 -4 46.5 -7.5t43.5 -11.5q59 -18 101.5 -45t70 -56.5t43 -59t25.5 -54.5q23 -57 27 -105.5t4 -66.5q0 -37 -7.5 -81t-23 -88t-42 -87t-65.5 -78q-45 -41 -88 -57.5t-57 -20.5q-61 -23 -114.5 -25.5t-74.5 -2.5q-59 0 -109 7t-69 11v221q35 -10 58.5 -14 t58.5 -4q8 0 45 2t72 18q53 23 95 83.5t42 154.5q0 49 -16.5 101.5t-73.5 99.5q-23 16 -44.5 25t-25.5 12q-18 6 -39.5 9t-41 4t-33.5 1h-15h-33v209h25q6 0 41 2t68 14q37 14 60.5 40t37.5 54.5t19 58t5 56.5q0 98 -49 159.5t-157 61.5q-59 0 -94 -19.5t-62 -47.5 q-20 -23 -28.5 -41.5t-12.5 -24.5q-23 -47 -28 -111.5t-7 -168.5v-961h-276z" />
<glyph unicode="&#xe0;" horiz-adv-x="1110" d="M37 311q2 86 31.5 142.5t70.5 91.5q66 59 176.5 88t270.5 31h12q41 0 72.5 -1t72.5 -6q-4 37 -8 79t-30 79q-25 35 -66 55.5t-111 24.5h-26q-78 -2 -132.5 -18.5t-86.5 -30.5l-43 -21.5t-66 -44.5l-8 242q33 12 68.5 24.5t78.5 22.5t97.5 17.5t121.5 7.5q39 0 84.5 -2 t89.5 -13.5t88 -32t83 -53.5q20 -18 47.5 -51t44.5 -84q20 -53 23 -127t3 -127v-254q0 -96 2 -175t7 -175h-248v158q-12 -23 -38 -54.5t-79 -64.5q-59 -35 -119.5 -46t-120.5 -11q-111 0 -181.5 32.5t-111 82.5t-55 107.5t-14.5 106.5zM204 1509h283l172 -299h-174zM322 315 q0 -23 8 -48t27.5 -47.5t51 -37t80.5 -14.5q25 0 63 9t77 35t70.5 72t43.5 119q4 23 5.5 51.5t1.5 30.5q-27 2 -52.5 3t-54.5 1q-111 0 -190.5 -21.5t-114.5 -82.5q-16 -31 -16 -70z" />
<glyph unicode="&#xe1;" horiz-adv-x="1110" d="M37 311q2 86 31.5 142.5t70.5 91.5q66 59 176.5 88t270.5 31h12q41 0 72.5 -1t72.5 -6q-4 37 -8 79t-30 79q-25 35 -66 55.5t-111 24.5h-26q-78 -2 -132.5 -18.5t-86.5 -30.5l-43 -21.5t-66 -44.5l-8 242q33 12 68.5 24.5t78.5 22.5t97.5 17.5t121.5 7.5q39 0 84.5 -2 t89.5 -13.5t88 -32t83 -53.5q20 -18 47.5 -51t44.5 -84q20 -53 23 -127t3 -127v-254q0 -96 2 -175t7 -175h-248v158q-12 -23 -38 -54.5t-79 -64.5q-59 -35 -119.5 -46t-120.5 -11q-111 0 -181.5 32.5t-111 82.5t-55 107.5t-14.5 106.5zM322 315q0 -23 8 -48t27.5 -47.5 t51 -37t80.5 -14.5q25 0 63 9t77 35t70.5 72t43.5 119q4 23 5.5 51.5t1.5 30.5q-27 2 -52.5 3t-54.5 1q-111 0 -190.5 -21.5t-114.5 -82.5q-16 -31 -16 -70zM454 1210l174 299h285l-295 -299h-164z" />
<glyph unicode="&#xe2;" horiz-adv-x="1110" d="M37 311q2 86 31.5 142.5t70.5 91.5q66 59 176.5 88t270.5 31h12q41 0 72.5 -1t72.5 -6q-4 37 -8 79t-30 79q-25 35 -66 55.5t-111 24.5h-26q-78 -2 -132.5 -18.5t-86.5 -30.5l-43 -21.5t-66 -44.5l-8 242q33 12 68.5 24.5t78.5 22.5t97.5 17.5t121.5 7.5q39 0 84.5 -2 t89.5 -13.5t88 -32t83 -53.5q20 -18 47.5 -51t44.5 -84q20 -53 23 -127t3 -127v-254q0 -96 2 -175t7 -175h-248v158q-12 -23 -38 -54.5t-79 -64.5q-59 -35 -119.5 -46t-120.5 -11q-111 0 -181.5 32.5t-111 82.5t-55 107.5t-14.5 106.5zM226 1208l227 301h217l219 -301h-188 l-143 181l-146 -181h-186zM322 315q0 -23 8 -48t27.5 -47.5t51 -37t80.5 -14.5q25 0 63 9t77 35t70.5 72t43.5 119q4 23 5.5 51.5t1.5 30.5q-27 2 -52.5 3t-54.5 1q-111 0 -190.5 -21.5t-114.5 -82.5q-16 -31 -16 -70z" />
<glyph unicode="&#xe3;" horiz-adv-x="1110" d="M37 311q2 86 31.5 142.5t70.5 91.5q66 59 176.5 88t270.5 31h12q41 0 72.5 -1t72.5 -6q-4 37 -8 79t-30 79q-25 35 -66 55.5t-111 24.5h-26q-78 -2 -132.5 -18.5t-86.5 -30.5l-43 -21.5t-66 -44.5l-8 242q33 12 68.5 24.5t78.5 22.5t97.5 17.5t121.5 7.5q39 0 84.5 -2 t89.5 -13.5t88 -32t83 -53.5q20 -18 47.5 -51t44.5 -84q20 -53 23 -127t3 -127v-254q0 -96 2 -175t7 -175h-248v158q-12 -23 -38 -54.5t-79 -64.5q-59 -35 -119.5 -46t-120.5 -11q-111 0 -181.5 32.5t-111 82.5t-55 107.5t-14.5 106.5zM183 1219q8 37 16 66.5t29 66.5 q25 43 52.5 67.5t54 35.5t49 14.5t34.5 3.5q29 0 66 -7.5t100 -35.5q49 -23 78 -31t51 -10q31 -2 50.5 11t31.5 29.5t17.5 34t7.5 23.5h108q-2 -10 -3 -16.5t-3 -14.5q-20 -94 -62 -143t-94 -68q-14 -4 -32.5 -7t-47.5 -3q-57 0 -98 15.5t-63 25.5q-31 14 -60.5 24.5 t-60.5 10.5q-16 0 -29.5 -3t-19.5 -8q-33 -12 -45.5 -34.5t-24.5 -46.5h-102zM322 315q0 -23 8 -48t27.5 -47.5t51 -37t80.5 -14.5q25 0 63 9t77 35t70.5 72t43.5 119q4 23 5.5 51.5t1.5 30.5q-27 2 -52.5 3t-54.5 1q-111 0 -190.5 -21.5t-114.5 -82.5q-16 -31 -16 -70z" />
<glyph unicode="&#xe4;" horiz-adv-x="1110" d="M37 311q2 86 31.5 142.5t70.5 91.5q66 59 176.5 88t270.5 31h12q41 0 72.5 -1t72.5 -6q-4 37 -8 79t-30 79q-25 35 -66 55.5t-111 24.5h-26q-78 -2 -132.5 -18.5t-86.5 -30.5l-43 -21.5t-66 -44.5l-8 242q33 12 68.5 24.5t78.5 22.5t97.5 17.5t121.5 7.5q39 0 84.5 -2 t89.5 -13.5t88 -32t83 -53.5q20 -18 47.5 -51t44.5 -84q20 -53 23 -127t3 -127v-254q0 -96 2 -175t7 -175h-248v158q-12 -23 -38 -54.5t-79 -64.5q-59 -35 -119.5 -46t-120.5 -11q-111 0 -181.5 32.5t-111 82.5t-55 107.5t-14.5 106.5zM266 1233v242h254v-242h-254zM322 315 q0 -23 8 -48t27.5 -47.5t51 -37t80.5 -14.5q25 0 63 9t77 35t70.5 72t43.5 119q4 23 5.5 51.5t1.5 30.5q-27 2 -52.5 3t-54.5 1q-111 0 -190.5 -21.5t-114.5 -82.5q-16 -31 -16 -70zM629 1233v242h262v-242h-262z" />
<glyph unicode="&#xe5;" horiz-adv-x="1110" d="M37 311q2 86 31.5 142.5t70.5 91.5q66 59 176.5 88t270.5 31h12q41 0 72.5 -1t72.5 -6q-4 37 -8 79t-30 79q-25 35 -66 55.5t-111 24.5h-26q-78 -2 -132.5 -18.5t-86.5 -30.5l-43 -21.5t-66 -44.5l-8 242q33 12 68.5 24.5t78.5 22.5t97.5 17.5t121.5 7.5q39 0 84.5 -2 t89.5 -13.5t88 -32t83 -53.5q20 -18 47.5 -51t44.5 -84q20 -53 23 -127t3 -127v-254q0 -96 2 -175t7 -175h-248v158q-12 -23 -38 -54.5t-79 -64.5q-59 -35 -119.5 -46t-120.5 -11q-111 0 -181.5 32.5t-111 82.5t-55 107.5t-14.5 106.5zM322 315q0 -23 8 -48t27.5 -47.5 t51 -37t80.5 -14.5q25 0 63 9t77 35t70.5 72t43.5 119q4 23 5.5 51.5t1.5 30.5q-27 2 -52.5 3t-54.5 1q-111 0 -190.5 -21.5t-114.5 -82.5q-16 -31 -16 -70zM346 1419q0 45 16.5 87t47.5 71q66 66 159 66q45 2 87 -13.5t73 -44.5q31 -31 47.5 -74t18.5 -90q0 -53 -17.5 -91 t-36.5 -56q-25 -29 -52.5 -43t-52 -20.5t-42 -7.5t-23.5 -1q-45 0 -87 15.5t-72 44.5q-66 65 -66 157zM457 1419q2 -47 33.5 -78.5t78.5 -31.5q23 0 43.5 7t36.5 23q33 33 33 80q0 49 -33 81t-80 32q-49 0 -80.5 -33t-31.5 -80z" />
<glyph unicode="&#xe6;" horiz-adv-x="1792" d="M37 324q0 74 27.5 126t56.5 82q10 10 23.5 20.5t15.5 12.5q63 47 162.5 70.5t246.5 23.5q47 0 91.5 -2t91.5 -6q-4 45 -16.5 96.5t-63.5 92.5q-41 33 -92.5 42t-94.5 9q-59 0 -108 -10.5t-89 -25.5t-73 -31.5t-57 -30.5l-4 213q23 10 44 19t62 24q66 23 137.5 33 t137.5 10q111 0 191.5 -27t121.5 -68q14 -14 25.5 -30.5t29.5 -44.5q23 35 37 52t31 30q61 53 143 71.5t146 18.5q129 0 211.5 -42t132.5 -102q35 -41 51 -77.5t20 -47.5q37 -94 44 -191t10 -192h-707q8 -45 24.5 -95t69.5 -93q31 -27 86 -47.5t133 -18.5q80 2 142.5 22.5 t91.5 35.5q18 10 32.5 18t30.5 19l4 -230q-35 -16 -57.5 -24.5t-38.5 -12.5q-37 -12 -100.5 -23t-153.5 -11q-74 0 -152.5 13t-152.5 60q-8 4 -33.5 22.5t-48.5 47.5q-12 16 -21.5 32.5t-17.5 32.5q-2 -4 -12 -25.5t-27 -41.5q-23 -27 -52.5 -48.5t-60 -36.5t-59 -24.5 t-53.5 -15.5q-47 -10 -86 -12t-55 -2q-66 0 -135.5 14t-135.5 57q-18 12 -30 25q-16 14 -40 38.5t-44 63.5q-23 47 -28 88t-5 54zM324 315q0 -25 9 -50t30.5 -45.5t55.5 -34t81 -13.5q4 0 24.5 2t49 11.5t59.5 27.5t57 51q39 47 51.5 105.5t14.5 107.5q-61 6 -121 6h-25 q-20 0 -49 -3t-61.5 -8t-59.5 -15q-12 -4 -31.5 -14.5t-39 -28t-32.5 -42t-13 -57.5zM1020 639h436q0 10 -1 17.5t-3 17.5q-10 78 -40 124t-69 68q-33 20 -61.5 24.5t-38.5 4.5q-45 0 -89 -20.5t-77 -67.5q-27 -39 -39 -84t-18 -84z" />
<glyph unicode="&#xe7;" horiz-adv-x="894" d="M59 543q0 131 33 217t80 141q47 57 92 87t64 40q80 39 168 51q10 2 47 6.5t73 4.5q78 0 132.5 -12.5t87.5 -22.5l-19 -224q-29 12 -66.5 24.5t-97.5 12.5q-66 0 -113.5 -17t-81.5 -45t-56.5 -62.5t-34.5 -69.5q-16 -43 -17.5 -84t-1.5 -53q0 -55 15.5 -121t66.5 -121 q53 -53 114.5 -71.5t114.5 -18.5q70 0 114 16.5t75 32.5l18 -234q-35 -10 -88 -22t-131 -16l-86 -136q27 8 44.5 10.5t41.5 2.5q49 0 83 -13.5t53.5 -34t28.5 -46t9 -52.5q0 -10 -5 -41.5t-34 -66.5q-39 -45 -94 -64.5t-141 -19.5q-74 0 -117 13t-78 28l41 90 q18 -10 55 -21.5t84 -11.5q33 0 63 7t46 36q10 12 10 35q0 29 -14 44t-31 21q-10 6 -20.5 7.5t-22.5 1.5q-29 0 -60.5 -7.5t-35.5 -9.5l-33 53l117 175q-106 8 -185 43.5t-133.5 85t-88 106.5t-52.5 111q-25 72 -29 131t-4 84z" />
<glyph unicode="&#xe8;" horiz-adv-x="1110" d="M55 524q0 100 18.5 170t37.5 111q10 18 20 38.5t12 24.5q10 14 19.5 27.5t21.5 26.5q59 72 153.5 123t237.5 51q131 0 222.5 -45t150 -120t85 -174.5t26.5 -207.5v-55q0 -25 -2 -54h-731q2 -4 10 -39.5t29 -66.5q27 -45 62.5 -73t73.5 -43t76.5 -21.5t73.5 -6.5 q61 0 126 14.5t126 45.5q25 10 50.5 26.5t31.5 20.5l4 -240q-61 -27 -148 -53.5t-223 -26.5h-36q-25 0 -56.5 3.5t-70.5 11.5t-78 22q-63 25 -121.5 67t-102.5 104.5t-71 146.5t-27 192zM202 1509h283l172 -299h-174zM326 635h477q-4 45 -12.5 89t-40.5 87 q-25 33 -51.5 50.5t-51 25.5t-44 10t-28.5 2q-6 0 -28.5 -2t-52 -11t-61.5 -30.5t-58 -60.5q-33 -53 -40 -98.5t-9 -61.5z" />
<glyph unicode="&#xe9;" horiz-adv-x="1110" d="M55 524q0 100 18.5 170t37.5 111q10 18 20 38.5t12 24.5q10 14 19.5 27.5t21.5 26.5q59 72 153.5 123t237.5 51q131 0 222.5 -45t150 -120t85 -174.5t26.5 -207.5v-55q0 -25 -2 -54h-731q2 -4 10 -39.5t29 -66.5q27 -45 62.5 -73t73.5 -43t76.5 -21.5t73.5 -6.5 q61 0 126 14.5t126 45.5q25 10 50.5 26.5t31.5 20.5l4 -240q-61 -27 -148 -53.5t-223 -26.5h-36q-25 0 -56.5 3.5t-70.5 11.5t-78 22q-63 25 -121.5 67t-102.5 104.5t-71 146.5t-27 192zM326 635h477q-4 45 -12.5 89t-40.5 87q-25 33 -51.5 50.5t-51 25.5t-44 10t-28.5 2 q-6 0 -28.5 -2t-52 -11t-61.5 -30.5t-58 -60.5q-33 -53 -40 -98.5t-9 -61.5zM454 1210l174 299h285l-295 -299h-164z" />
<glyph unicode="&#xea;" horiz-adv-x="1110" d="M55 524q0 100 18.5 170t37.5 111q10 18 20 38.5t12 24.5q10 14 19.5 27.5t21.5 26.5q59 72 153.5 123t237.5 51q131 0 222.5 -45t150 -120t85 -174.5t26.5 -207.5v-55q0 -25 -2 -54h-731q2 -4 10 -39.5t29 -66.5q27 -45 62.5 -73t73.5 -43t76.5 -21.5t73.5 -6.5 q61 0 126 14.5t126 45.5q25 10 50.5 26.5t31.5 20.5l4 -240q-61 -27 -148 -53.5t-223 -26.5h-36q-25 0 -56.5 3.5t-70.5 11.5t-78 22q-63 25 -121.5 67t-102.5 104.5t-71 146.5t-27 192zM244 1208l227 301h217l219 -301h-188l-143 181l-146 -181h-186zM326 635h477 q-4 45 -12.5 89t-40.5 87q-25 33 -51.5 50.5t-51 25.5t-44 10t-28.5 2q-6 0 -28.5 -2t-52 -11t-61.5 -30.5t-58 -60.5q-33 -53 -40 -98.5t-9 -61.5z" />
<glyph unicode="&#xeb;" horiz-adv-x="1110" d="M55 524q0 100 18.5 170t37.5 111q10 18 20 38.5t12 24.5q10 14 19.5 27.5t21.5 26.5q59 72 153.5 123t237.5 51q131 0 222.5 -45t150 -120t85 -174.5t26.5 -207.5v-55q0 -25 -2 -54h-731q2 -4 10 -39.5t29 -66.5q27 -45 62.5 -73t73.5 -43t76.5 -21.5t73.5 -6.5 q61 0 126 14.5t126 45.5q25 10 50.5 26.5t31.5 20.5l4 -240q-61 -27 -148 -53.5t-223 -26.5h-36q-25 0 -56.5 3.5t-70.5 11.5t-78 22q-63 25 -121.5 67t-102.5 104.5t-71 146.5t-27 192zM268 1233v242h254v-242h-254zM326 635h477q-4 45 -12.5 89t-40.5 87 q-25 33 -51.5 50.5t-51 25.5t-44 10t-28.5 2q-6 0 -28.5 -2t-52 -11t-61.5 -30.5t-58 -60.5q-33 -53 -40 -98.5t-9 -61.5zM631 1233v242h262v-242h-262z" />
<glyph unicode="&#xec;" horiz-adv-x="512" d="M-95 1509h283l172 -299h-174zM117 0v1073h278v-1073h-278z" />
<glyph unicode="&#xed;" horiz-adv-x="512" d="M117 0v1073h278v-1073h-278zM162 1210l174 299h285l-295 -299h-164z" />
<glyph unicode="&#xee;" horiz-adv-x="512" d="M-71 1208l227 301h217l219 -301h-188l-143 181l-146 -181h-186zM117 0v1073h278v-1073h-278z" />
<glyph unicode="&#xef;" horiz-adv-x="512" d="M-51 1233v242h254v-242h-254zM117 0v1073h278v-1073h-278zM312 1233v242h262v-242h-262z" />
<glyph unicode="&#xf1;" d="M111 1073h268v-166q18 25 41 49q31 35 61.5 53.5t40.5 24.5q61 35 114.5 45.5t113.5 10.5q78 0 128 -16.5t83 -37.5q16 -10 39.5 -29.5t52.5 -60.5q25 -33 38 -71.5t19 -86t8 -106.5t4 -133v-549h-276v518q-2 96 -8.5 152.5t-28.5 101.5q-14 27 -32.5 44.5t-47.5 31.5 q-10 4 -31.5 10t-50.5 6q-14 2 -54 -5t-85 -42q-37 -29 -58.5 -63.5t-31.5 -75.5t-14.5 -85t-4.5 -91v-502h-280v815q0 72 -2 129t-6 129zM246 1219q8 37 16 66.5t29 66.5q25 43 52.5 67.5t54 35.5t49 14.5t34.5 3.5q29 0 66 -7.5t100 -35.5q49 -23 78 -31t51 -10 q31 -2 50.5 11t31.5 29.5t17.5 34t7.5 23.5h108q-2 -10 -3 -16.5t-3 -14.5q-20 -94 -62 -143t-94 -68q-14 -4 -32.5 -7t-47.5 -3q-57 0 -98 15.5t-63 25.5q-31 14 -60.5 24.5t-60.5 10.5q-16 0 -29.5 -3t-19.5 -8q-33 -12 -45.5 -34.5t-24.5 -46.5h-102z" />
<glyph unicode="&#xf2;" d="M61 541q2 145 49.5 245.5t108.5 159.5q37 35 64.5 51.5t40.5 24.5q41 23 115.5 47.5t178.5 24.5q63 0 126 -11.5t120 -35.5q86 -37 140.5 -90.5t87 -106.5t48 -99t19.5 -67q12 -51 14.5 -91t2.5 -56q0 -111 -30 -198t-78 -151.5t-108.5 -106.5t-121.5 -65 q-72 -27 -135.5 -30.5t-86.5 -3.5q-51 0 -101 7t-99 23q-61 20 -125 63.5t-115 108t-83 153.5t-32 204zM272 1509h283l172 -299h-174zM354 543q0 -92 26 -162t54 -105q25 -29 46.5 -44t31.5 -19q35 -18 66.5 -21.5t42.5 -3.5q59 0 100 20.5t63 43.5q47 43 73 115.5t24 183.5 q-2 61 -17.5 135t-75.5 133q-29 29 -67.5 49.5t-99.5 20.5q-41 0 -84 -17q-27 -10 -47.5 -23t-28.5 -22q-45 -39 -76 -109.5t-31 -174.5z" />
<glyph unicode="&#xf3;" d="M61 541q2 145 49.5 245.5t108.5 159.5q37 35 64.5 51.5t40.5 24.5q41 23 115.5 47.5t178.5 24.5q63 0 126 -11.5t120 -35.5q86 -37 140.5 -90.5t87 -106.5t48 -99t19.5 -67q12 -51 14.5 -91t2.5 -56q0 -111 -30 -198t-78 -151.5t-108.5 -106.5t-121.5 -65 q-72 -27 -135.5 -30.5t-86.5 -3.5q-51 0 -101 7t-99 23q-61 20 -125 63.5t-115 108t-83 153.5t-32 204zM354 543q0 -92 26 -162t54 -105q25 -29 46.5 -44t31.5 -19q35 -18 66.5 -21.5t42.5 -3.5q59 0 100 20.5t63 43.5q47 43 73 115.5t24 183.5q-2 61 -17.5 135t-75.5 133 q-29 29 -67.5 49.5t-99.5 20.5q-41 0 -84 -17q-27 -10 -47.5 -23t-28.5 -22q-45 -39 -76 -109.5t-31 -174.5zM520 1210l174 299h285l-295 -299h-164z" />
<glyph unicode="&#xf4;" d="M61 541q2 145 49.5 245.5t108.5 159.5q37 35 64.5 51.5t40.5 24.5q41 23 115.5 47.5t178.5 24.5q63 0 126 -11.5t120 -35.5q86 -37 140.5 -90.5t87 -106.5t48 -99t19.5 -67q12 -51 14.5 -91t2.5 -56q0 -111 -30 -198t-78 -151.5t-108.5 -106.5t-121.5 -65 q-72 -27 -135.5 -30.5t-86.5 -3.5q-51 0 -101 7t-99 23q-61 20 -125 63.5t-115 108t-83 153.5t-32 204zM289 1208l227 301h217l219 -301h-188l-143 181l-146 -181h-186zM354 543q0 -92 26 -162t54 -105q25 -29 46.5 -44t31.5 -19q35 -18 66.5 -21.5t42.5 -3.5q59 0 100 20.5 t63 43.5q47 43 73 115.5t24 183.5q-2 61 -17.5 135t-75.5 133q-29 29 -67.5 49.5t-99.5 20.5q-41 0 -84 -17q-27 -10 -47.5 -23t-28.5 -22q-45 -39 -76 -109.5t-31 -174.5z" />
<glyph unicode="&#xf5;" d="M61 541q2 145 49.5 245.5t108.5 159.5q37 35 64.5 51.5t40.5 24.5q41 23 115.5 47.5t178.5 24.5q63 0 126 -11.5t120 -35.5q86 -37 140.5 -90.5t87 -106.5t48 -99t19.5 -67q12 -51 14.5 -91t2.5 -56q0 -111 -30 -198t-78 -151.5t-108.5 -106.5t-121.5 -65 q-72 -27 -135.5 -30.5t-86.5 -3.5q-51 0 -101 7t-99 23q-61 20 -125 63.5t-115 108t-83 153.5t-32 204zM242 1219q8 37 16 66.5t29 66.5q25 43 52.5 67.5t54 35.5t49 14.5t34.5 3.5q29 0 66 -7.5t100 -35.5q49 -23 78 -31t51 -10q31 -2 50.5 11t31.5 29.5t17.5 34t7.5 23.5 h108q-2 -10 -3 -16.5t-3 -14.5q-20 -94 -62 -143t-94 -68q-14 -4 -32.5 -7t-47.5 -3q-57 0 -98 15.5t-63 25.5q-31 14 -60.5 24.5t-60.5 10.5q-16 0 -29.5 -3t-19.5 -8q-33 -12 -45.5 -34.5t-24.5 -46.5h-102zM354 543q0 -92 26 -162t54 -105q25 -29 46.5 -44t31.5 -19 q35 -18 66.5 -21.5t42.5 -3.5q59 0 100 20.5t63 43.5q47 43 73 115.5t24 183.5q-2 61 -17.5 135t-75.5 133q-29 29 -67.5 49.5t-99.5 20.5q-41 0 -84 -17q-27 -10 -47.5 -23t-28.5 -22q-45 -39 -76 -109.5t-31 -174.5z" />
<glyph unicode="&#xf6;" d="M61 541q2 145 49.5 245.5t108.5 159.5q37 35 64.5 51.5t40.5 24.5q41 23 115.5 47.5t178.5 24.5q63 0 126 -11.5t120 -35.5q86 -37 140.5 -90.5t87 -106.5t48 -99t19.5 -67q12 -51 14.5 -91t2.5 -56q0 -111 -30 -198t-78 -151.5t-108.5 -106.5t-121.5 -65 q-72 -27 -135.5 -30.5t-86.5 -3.5q-51 0 -101 7t-99 23q-61 20 -125 63.5t-115 108t-83 153.5t-32 204zM309 1233v242h254v-242h-254zM354 543q0 -92 26 -162t54 -105q25 -29 46.5 -44t31.5 -19q35 -18 66.5 -21.5t42.5 -3.5q59 0 100 20.5t63 43.5q47 43 73 115.5t24 183.5 q-2 61 -17.5 135t-75.5 133q-29 29 -67.5 49.5t-99.5 20.5q-41 0 -84 -17q-27 -10 -47.5 -23t-28.5 -22q-45 -39 -76 -109.5t-31 -174.5zM672 1233v242h262v-242h-262z" />
<glyph unicode="&#xf7;" horiz-adv-x="1366" d="M0 489v211h1366v-211h-1366zM543 262q0 59 41 100t100 41t99 -41t40 -100q0 -37 -16 -65q-12 -27 -43 -50.5t-82 -21.5q-59 0 -99 39t-40 98zM543 926q0 59 41 99t100 40q27 0 46.5 -7t29.5 -14q20 -12 41.5 -41.5t21.5 -76.5q0 -35 -16 -68q-23 -41 -57.5 -56.5 t-67.5 -15.5q-59 2 -99 41t-40 99z" />
<glyph unicode="&#xf8;" d="M55 539q0 74 13.5 136t36 113.5t53 92.5t61.5 71q57 53 157.5 99.5t244.5 44.5q113 -2 186.5 -29t122.5 -53l112 135l88 -74l-110 -137q4 -4 22.5 -25.5t34.5 -44.5q29 -45 60.5 -127t33.5 -196q0 -72 -18 -152t-60 -153.5t-111 -134t-169 -93.5q-33 -10 -65.5 -16 t-60.5 -9t-49.5 -4t-29.5 -1q-61 0 -106 6t-81 18t-66.5 27.5t-63.5 34.5l-109 -131l-92 71l113 135q-12 12 -32.5 38t-41.5 61q-27 45 -41 93t-21.5 90t-9.5 71.5t-2 42.5zM332 543q0 -47 7 -87t11 -57q6 -20 11.5 -34.5t7.5 -20.5l407 487q-12 10 -21.5 18.5t-13.5 10.5 q-16 10 -51 21.5t-78 13.5q-6 0 -28.5 -2t-51 -11.5t-61.5 -28.5t-61 -56q-25 -31 -38.5 -65t-23.5 -64q-10 -43 -13 -77t-3 -48zM444 250q4 -4 13.5 -12.5t21.5 -18.5q29 -18 66 -27.5t65 -9.5q33 0 60.5 7.5t38.5 11.5q51 23 94 67.5t69 139.5q16 70 17 129 q0 74 -13.5 121t-25.5 79z" />
<glyph unicode="&#xf9;" d="M102 479v594h279v-541q0 -45 2 -89t12.5 -84t32 -73.5t59.5 -54.5q33 -18 62 -21t39 -3q59 0 100 20.5t64 44.5q23 27 34 52.5t15 31.5q20 53 25 102.5t5 102.5v512h277v-711q4 -100 6 -181t6 -181h-260l-8 168q-12 -20 -28.5 -43t-57.5 -55q-41 -33 -106.5 -60.5 t-163.5 -27.5q-109 -2 -179.5 31.5t-113.5 80.5q-37 41 -57.5 91.5t-30 101.5t-11.5 101t-2 91zM270 1509h283l172 -299h-174z" />
<glyph unicode="&#xfa;" d="M102 479v594h279v-541q0 -45 2 -89t12.5 -84t32 -73.5t59.5 -54.5q33 -18 62 -21t39 -3q59 0 100 20.5t64 44.5q23 27 34 52.5t15 31.5q20 53 25 102.5t5 102.5v512h277v-711q4 -100 6 -181t6 -181h-260l-8 168q-12 -20 -28.5 -43t-57.5 -55q-41 -33 -106.5 -60.5 t-163.5 -27.5q-109 -2 -179.5 31.5t-113.5 80.5q-37 41 -57.5 91.5t-30 101.5t-11.5 101t-2 91zM524 1210l174 299h285l-295 -299h-164z" />
<glyph unicode="&#xfb;" d="M102 479v594h279v-541q0 -45 2 -89t12.5 -84t32 -73.5t59.5 -54.5q33 -18 62 -21t39 -3q59 0 100 20.5t64 44.5q23 27 34 52.5t15 31.5q20 53 25 102.5t5 102.5v512h277v-711q4 -100 6 -181t6 -181h-260l-8 168q-12 -20 -28.5 -43t-57.5 -55q-41 -33 -106.5 -60.5 t-163.5 -27.5q-109 -2 -179.5 31.5t-113.5 80.5q-37 41 -57.5 91.5t-30 101.5t-11.5 101t-2 91zM289 1208l227 301h217l219 -301h-188l-143 181l-146 -181h-186z" />
<glyph unicode="&#xfc;" d="M102 479v594h279v-541q0 -45 2 -89t12.5 -84t32 -73.5t59.5 -54.5q33 -18 62 -21t39 -3q59 0 100 20.5t64 44.5q23 27 34 52.5t15 31.5q20 53 25 102.5t5 102.5v512h277v-711q4 -100 6 -181t6 -181h-260l-8 168q-12 -20 -28.5 -43t-57.5 -55q-41 -33 -106.5 -60.5 t-163.5 -27.5q-109 -2 -179.5 31.5t-113.5 80.5q-37 41 -57.5 91.5t-30 101.5t-11.5 101t-2 91zM297 1233v242h254v-242h-254zM660 1233v242h262v-242h-262z" />
<glyph unicode="&#xfd;" horiz-adv-x="1110" d="M-2 1073h303l164 -487q14 -49 27.5 -93t25.5 -87.5t24.5 -87.5t26.5 -93q23 92 45.5 166t51.5 164l163 518h283l-410 -1100q-41 -113 -75.5 -188.5t-79.5 -122.5q-25 -29 -48.5 -46t-31.5 -22q-53 -31 -109.5 -42t-107.5 -11q-35 0 -75 5t-109 22l20 209 q35 -10 59.5 -15.5t57.5 -5.5q57 0 95 20.5t61.5 50.5t37 60.5t19.5 51.5zM457 1210l174 299h285l-295 -299h-164z" />
<glyph unicode="&#xff;" horiz-adv-x="1110" d="M-2 1073h303l164 -487q14 -49 27.5 -93t25.5 -87.5t24.5 -87.5t26.5 -93q23 92 45.5 166t51.5 164l163 518h283l-410 -1100q-41 -113 -75.5 -188.5t-79.5 -122.5q-25 -29 -48.5 -46t-31.5 -22q-53 -31 -109.5 -42t-107.5 -11q-35 0 -75 5t-109 22l20 209 q35 -10 59.5 -15.5t57.5 -5.5q57 0 95 20.5t61.5 50.5t37 60.5t19.5 51.5zM245 1233v242h254v-242h-254zM608 1233v242h262v-242h-262z" />
<glyph unicode="&#x152;" horiz-adv-x="1878" d="M59 731q2 199 62.5 328t148.5 211q51 47 100.5 71.5t65.5 34.5q94 43 189.5 58.5t189.5 15.5q37 0 74 -1t72 -3h845v-246h-542v-344h495v-233h-495v-381h553v-242h-949q-102 0 -190 7t-189 44q-12 4 -22 8t-23 11q-20 8 -66 32.5t-99 71.5l-41 41t-56 68q-47 66 -85 177 t-38 271zM360 729q0 -47 7.5 -98t26 -104.5t52 -104.5t86.5 -94q25 -20 68 -44t105 -40q49 -14 93 -16.5t58 -2.5q43 0 67.5 3t47.5 8v974q-33 4 -63.5 6.5t-63.5 4.5q-102 2 -179 -27t-132.5 -74t-90 -99t-51.5 -103q-23 -61 -27 -114.5t-4 -74.5z" />
<glyph unicode="&#x153;" horiz-adv-x="1961" d="M63 532q0 125 38 227.5t109 177.5t172 117t232 44q72 2 143.5 -12.5t143.5 -61.5q33 -23 54.5 -44.5t31.5 -33.5q8 -10 15 -22l8 -11q14 20 27.5 37t30.5 33t42 31.5t64 34.5q39 16 95 31.5t144 15.5q49 0 102.5 -7.5t105.5 -29t101.5 -58t89.5 -98.5q35 -53 53.5 -112.5 t28 -120t12.5 -119.5t3 -111h-738q4 -35 10.5 -62.5t24.5 -60.5q10 -20 20.5 -31.5t18.5 -19.5q35 -37 92.5 -58.5t143.5 -21.5q78 0 134 15.5t87 27.5q41 16 71.5 35t47.5 29l8 -234q-68 -29 -158 -54t-233 -25q-72 0 -142.5 12t-142.5 51q-16 8 -33.5 19.5t-32.5 21.5 q-23 18 -35 35.5t-28 40.5q-8 -10 -28.5 -36t-55.5 -54q-37 -29 -80 -47.5t-87 -28.5t-87 -13.5t-80 -3.5q-123 0 -214 33t-153.5 87.5t-99.5 121t-55 133.5q-16 59 -18.5 111.5t-2.5 68.5zM352 541q0 -2 1 -36t11.5 -82t35 -99.5t71.5 -90.5q47 -37 90 -43t57 -6 q45 0 96.5 19.5t92.5 66.5q10 14 24.5 38t26.5 59q14 41 20.5 81.5t6.5 81.5q0 92 -23.5 162t-50.5 105q-18 23 -34.5 36t-39.5 27q-37 20 -71.5 24.5t-44.5 4.5q-47 0 -93 -19q-8 -4 -35.5 -18t-56.5 -47q-31 -37 -57.5 -103.5t-26.5 -160.5zM1161 633h471q-2 29 -6 61.5 t-15.5 64.5t-33 59.5t-57.5 47.5q-37 20 -71 23.5t-44 3.5q-53 0 -92 -16.5t-65.5 -41t-43 -54t-24.5 -54.5t-11.5 -47.5t-7.5 -46.5z" />
<glyph unicode="&#x178;" horiz-adv-x="1323" d="M-12 1446h338l176 -318q25 -43 45 -77.5t45 -77.5q23 -41 40 -73t40 -73q20 41 37.5 74t40.5 74q23 43 43 77.5t45 75.5l182 318h313l-522 -858v-588h-293v580zM309 1579v242h262v-242h-262zM745 1579v242h263v-242h-263z" />
<glyph unicode="&#x2c6;" horiz-adv-x="555" d="M-223 1208l227 301h217l219 -301h-188l-143 181l-146 -181h-186z" />
<glyph unicode="&#x2dc;" horiz-adv-x="555" d="M-270 1219q8 37 16 66.5t29 66.5q25 43 52.5 67.5t54 35.5t49 14.5t34.5 3.5q29 0 66 -7.5t100 -35.5q49 -23 78 -31t51 -10q31 -2 50.5 11t31.5 29.5t17.5 34t7.5 23.5h108q-2 -10 -3 -16.5t-3 -14.5q-20 -94 -62 -143t-94 -68q-14 -4 -32.5 -7t-47.5 -3q-57 0 -98 15.5 t-63 25.5q-31 14 -60.5 24.5t-60.5 10.5q-16 0 -29.5 -3t-19.5 -8q-33 -12 -45.5 -34.5t-24.5 -46.5h-102z" />
<glyph unicode="&#x2000;" horiz-adv-x="972" />
<glyph unicode="&#x2001;" horiz-adv-x="1944" />
<glyph unicode="&#x2002;" horiz-adv-x="972" />
<glyph unicode="&#x2003;" horiz-adv-x="1944" />
<glyph unicode="&#x2004;" horiz-adv-x="648" />
<glyph unicode="&#x2005;" horiz-adv-x="486" />
<glyph unicode="&#x2006;" horiz-adv-x="324" />
<glyph unicode="&#x2007;" horiz-adv-x="324" />
<glyph unicode="&#x2008;" horiz-adv-x="243" />
<glyph unicode="&#x2009;" horiz-adv-x="388" />
<glyph unicode="&#x200a;" horiz-adv-x="108" />
<glyph unicode="&#x2010;" horiz-adv-x="681" d="M72 440v230h540v-230h-540z" />
<glyph unicode="&#x2011;" horiz-adv-x="681" d="M72 440v230h540v-230h-540z" />
<glyph unicode="&#x2012;" horiz-adv-x="681" d="M72 440v230h540v-230h-540z" />
<glyph unicode="&#x2013;" horiz-adv-x="1150" d="M72 440v230h1007v-230h-1007z" />
<glyph unicode="&#x2014;" horiz-adv-x="1366" d="M0 496v211h1366v-211h-1366z" />
<glyph unicode="&#x2018;" horiz-adv-x="468" d="M33 930l178 516h242l-127 -516h-293z" />
<glyph unicode="&#x2019;" horiz-adv-x="468" d="M20 930l127 516h293l-178 -516h-242z" />
<glyph unicode="&#x201a;" horiz-adv-x="468" d="M12 -238l123 525h297l-180 -525h-240z" />
<glyph unicode="&#x201c;" horiz-adv-x="894" d="M27 930l182 516h242l-127 -516h-297zM449 930l184 516h239l-127 -516h-296z" />
<glyph unicode="&#x201d;" horiz-adv-x="894" d="M20 930l127 516h297l-184 -516h-240zM444 930l125 516h299l-184 -516h-240z" />
<glyph unicode="&#x201e;" horiz-adv-x="894" d="M10 -229l127 518h297l-184 -518h-240zM432 -229l127 518h297l-184 -518h-240z" />
<glyph unicode="&#x2022;" horiz-adv-x="681" d="M49 721q0 61 23.5 114.5t63.5 93.5t93.5 62.5t112.5 22.5q55 0 98 -14.5t76 -39t55.5 -53t34.5 -55.5q8 -16 17.5 -50t9.5 -79q0 -80 -35 -145q-12 -25 -34.5 -51.5t-53.5 -48t-73 -35t-95 -13.5q-57 2 -97 16.5t-63 30.5q-23 14 -45 36t-42.5 52.5t-33 69.5t-12.5 86z " />
<glyph unicode="&#x2026;" horiz-adv-x="2048" d="M203 127q0 47 21.5 75.5t39.5 41.5q25 16 46.5 19t29.5 3q59 2 100 -38t41 -99q0 -37 -18 -68q-12 -25 -43 -50t-82 -23q-29 2 -59.5 16t-53.5 45q-16 23 -19 46.5t-3 31.5zM885 127q0 59 41 99t96 40q59 2 100 -38t41 -99q0 -35 -16 -68q-12 -25 -44 -50t-83 -23 q-57 4 -96 43t-39 96zM1569 127q0 55 27.5 86t50.5 41q6 2 23.5 7t35.5 5q57 2 98 -38t41 -99q0 -16 -3 -33.5t-13 -34.5q-23 -41 -57.5 -58t-69.5 -15q-57 4 -95 42t-38 97z" />
<glyph unicode="&#x202f;" horiz-adv-x="388" />
<glyph unicode="&#x2039;" horiz-adv-x="632" d="M70 555l241 424h267l-226 -424l226 -428h-259z" />
<glyph unicode="&#x203a;" horiz-adv-x="632" d="M55 127l226 424l-226 428h258l250 -428l-241 -424h-267z" />
<glyph unicode="&#x205f;" horiz-adv-x="486" />
<glyph unicode="&#x20ac;" horiz-adv-x="1261" d="M2 510l31 125h153q-2 23 -3 40t-1 40t1 40t3 40h-184l31 125h174q2 14 10 45.5t23.5 72.5t41 88.5t66.5 96.5q92 111 196.5 157.5t209.5 63.5q53 8 100 10t64 2q115 0 189.5 -20.5t123.5 -36.5l-53 -213q-39 16 -96.5 34.5t-143.5 18.5q-135 0 -224 -53t-136 -123 q-14 -20 -26.5 -44t-21 -45.5t-13.5 -36.5t-7 -17h608l-31 -125h-602q-4 -29 -5 -47.5t-1 -32.5q0 -29 2 -49.5t4 -30.5h566l-29 -125h-504q2 -6 14.5 -43t30.5 -68q20 -35 53 -69.5t79 -63t104.5 -47t130.5 -18.5q39 0 91 6t89 16q27 6 34 9.5t34 13.5l12 -230 q-98 -31 -170 -36t-109 -5q-182 0 -299.5 43t-195.5 109q-63 53 -94 98t-43 68q-18 33 -30.5 67.5t-22 65.5t-14.5 54.5t-7 29.5h-203z" />
<glyph unicode="&#x2122;" horiz-adv-x="1406" d="M16 1327v119h570v-119h-209v-561h-146v561h-215zM643 766v680h188l164 -514l156 514h190v-680h-141l4 391q0 2 1 17.5t2 36t3 44t4 41.5l-6 -24q-6 -25 -11 -44.5t-13 -43.5l-127 -418h-129l-131 420q-10 29 -15.5 54.5t-15.5 53.5q4 -23 7 -68.5t3 -68.5l8 -391h-141z " />
<glyph unicode="&#xe000;" horiz-adv-x="1075" d="M0 0v1075h1075v-1075h-1075z" />
<glyph unicode="&#xfb01;" horiz-adv-x="1280" d="M0 864v209h213q0 61 4 135t25 135q29 86 73.5 127t85.5 62q31 14 62 22.5t57.5 11.5t46.5 3h29q43 0 76 -4t78 -13l-19 -223q-10 2 -31.5 7t-48.5 5t-55.5 -7t-52.5 -31q-37 -35 -44 -90.5t-10 -139.5h242v-209h-242v-864h-276v864h-213zM887 0v1073h278v-1073h-278z M887 1270v258h278v-258h-278z" />
<glyph unicode="&#xfb02;" horiz-adv-x="1280" d="M0 864v209h213q0 61 4 135t25 135q29 86 73.5 127t85.5 62q31 14 62 22.5t57.5 11.5t46.5 3h29q43 0 76 -4t78 -13l-19 -223q-10 2 -31.5 7t-48.5 5t-55.5 -7t-52.5 -31q-37 -35 -44 -90.5t-10 -139.5h242v-209h-242v-864h-276v864h-213zM883 0v1565h278v-1565h-278z" />
</font>
</defs>
</svg>
